<svg width="30" height="30" viewBox="0 0 30 30" fill="none" xmlns="http://www.w3.org/2000/svg">
<circle cx="15" cy="15" r="15" fill="#FFB113"/>
<g clip-path="url(#clip0_2001_700)">
<path d="M21 10.0833V12.25C21 12.3937 20.9429 12.5314 20.8413 12.633C20.7398 12.7346 20.602 12.7917 20.4583 12.7917C20.3147 12.7917 20.1769 12.7346 20.0753 12.633C19.9737 12.5314 19.9167 12.3937 19.9167 12.25V10.8628L17.0458 13.7179C16.9971 13.775 16.9371 13.8214 16.8696 13.854C16.802 13.8867 16.7284 13.905 16.6534 13.9077C16.5784 13.9105 16.5037 13.8976 16.4339 13.8699C16.3642 13.8423 16.3009 13.8004 16.2482 13.747C16.1955 13.6936 16.1545 13.6298 16.1277 13.5597C16.1009 13.4896 16.089 13.4147 16.0927 13.3398C16.0964 13.2648 16.1156 13.1915 16.1491 13.1243C16.1827 13.0572 16.2298 12.9978 16.2875 12.9498L19.1637 10.0833H17.75C17.6063 10.0833 17.4686 10.0263 17.367 9.92468C17.2654 9.8231 17.2083 9.68532 17.2083 9.54167C17.2083 9.39801 17.2654 9.26023 17.367 9.15865C17.4686 9.05707 17.6063 9 17.75 9H19.9167C20.204 9 20.4795 9.11414 20.6827 9.3173C20.8859 9.52046 21 9.79601 21 10.0833ZM19.1881 17.047C18.8754 16.7494 18.46 16.5837 18.0283 16.5843C17.5966 16.5849 17.1817 16.7518 16.8698 17.0502L15.8374 17.9202C14.9946 17.5715 14.229 17.0597 13.5846 16.4142C12.9403 15.7687 12.4298 15.0022 12.0825 14.1588L12.9492 13.1297C13.2477 12.8177 13.4145 12.4029 13.4151 11.9711C13.4157 11.5394 13.25 11.1241 12.9525 10.8113C12.9525 10.8113 11.9493 9.50862 11.933 9.49129C11.6237 9.1803 11.2046 9.00338 10.766 8.99872C10.3274 8.99406 9.90454 9.16203 9.5887 9.46637L8.96633 10.008C4.78466 14.4546 15.5747 25.2495 20.0163 21.0039L20.5103 20.4357C20.8242 20.1209 21.0005 19.6945 21.0005 19.25C21.0005 18.8054 20.8242 18.379 20.5103 18.0642C20.4925 18.0502 19.1881 17.047 19.1881 17.047Z" fill="white"/>
</g>
<defs>
<clipPath id="clip0_2001_700">
<rect width="13" height="13" fill="white" transform="translate(8 9)"/>
</clipPath>
</defs>
</svg>
