<svg width="20" height="20" viewBox="0 0 20 20" fill="none" xmlns="http://www.w3.org/2000/svg">
<g clip-path="url(#clip0_2001_781)">
<path d="M5.83329 20C6.75377 20 7.49996 19.2538 7.49996 18.3333C7.49996 17.4129 6.75377 16.6667 5.83329 16.6667C4.91282 16.6667 4.16663 17.4129 4.16663 18.3333C4.16663 19.2538 4.91282 20 5.83329 20Z" fill="#AFBBB5"/>
<path d="M14.1667 20C15.0871 20 15.8333 19.2538 15.8333 18.3333C15.8333 17.4129 15.0871 16.6667 14.1667 16.6667C13.2462 16.6667 12.5 17.4129 12.5 18.3333C12.5 19.2538 13.2462 20 14.1667 20Z" fill="#AFBBB5"/>
<path d="M19.1533 5.015C18.5667 4.45408 17.7814 4.14896 16.97 4.16667H4.71167L4.4925 2.44833C4.41292 1.77391 4.08865 1.15213 3.58117 0.700864C3.07369 0.249599 2.41827 0.000218231 1.73917 0L1.25 0C0.918479 0 0.600537 0.131696 0.366117 0.366117C0.131696 0.600537 0 0.918479 0 1.25C0 1.58152 0.131696 1.89946 0.366117 2.13388C0.600537 2.3683 0.918479 2.5 1.25 2.5H1.73917C1.80734 2.50073 1.87283 2.52668 1.92299 2.57285C1.97316 2.61901 2.00445 2.68212 2.01083 2.75L3.26083 12.5492C3.33967 13.2241 3.66365 13.8466 4.17122 14.2984C4.6788 14.7502 5.33463 14.9999 6.01417 15H14.4492C15.4526 14.9994 16.428 14.6696 17.2259 14.0611C18.0237 13.4526 18.5998 12.5992 18.8658 11.6317L19.9042 7.85583C20.0426 7.3583 20.046 6.83287 19.914 6.33359C19.7821 5.8343 19.5195 5.37917 19.1533 5.015Z" fill="#AFBBB5"/>
</g>
<defs>
<clipPath id="clip0_2001_781">
<rect width="20" height="20" fill="white"/>
</clipPath>
</defs>
</svg>
