<svg width="20" height="20" viewBox="0 0 20 20" fill="none" xmlns="http://www.w3.org/2000/svg">
<g clip-path="url(#clip0_2001_785)">
<path d="M14.5833 1.5975C13.645 1.6121 12.7271 1.87405 11.9223 2.3569C11.1176 2.83974 10.4545 3.52639 10 4.3475C9.54554 3.52639 8.88245 2.83974 8.0777 2.3569C7.27296 1.87405 6.35505 1.6121 5.41667 1.5975C3.92079 1.6625 2.51143 2.31688 1.49649 3.4177C0.481556 4.51851 -0.0564529 5.97627 5.93299e-06 7.4725C5.93299e-06 11.2617 3.98834 15.4 7.33334 18.2058C8.08019 18.8334 9.02447 19.1775 10 19.1775C10.9755 19.1775 11.9198 18.8334 12.6667 18.2058C16.0117 15.4 20 11.2617 20 7.4725C20.0565 5.97627 19.5185 4.51851 18.5035 3.4177C17.4886 2.31688 16.0792 1.6625 14.5833 1.5975Z" fill="#AFBBB5"/>
</g>
<defs>
<clipPath id="clip0_2001_785">
<rect width="20" height="20" fill="white"/>
</clipPath>
</defs>
</svg>
