<svg width="24" height="24" viewBox="0 0 24 24" fill="none" xmlns="http://www.w3.org/2000/svg">
<g clip-path="url(#clip0_87_1613)">
<path d="M19.447 6.912C17.716 5.317 15.474 4.269 12.998 4.045L15 0H22.867L19.447 6.912ZM10.996 4.046L9 0H1.028L4.474 6.985C6.214 5.35 8.484 4.275 10.996 4.046ZM21 15C21 19.963 16.962 24 12 24C7.038 24 3 19.963 3 15C3 10.037 7.038 6 12 6C16.962 6 21 10.037 21 15ZM17 13.5H13.418L12.422 9.972H11.6L10.603 13.5H7.001V14.247L9.703 15.825L8.629 19L9.24 19.46L12.013 17.315L14.775 19.451L15.41 19.008L14.256 15.873L17 14.243V13.501V13.5Z" fill="#27A33B"/>
</g>
<defs>
<clipPath id="clip0_87_1613">
<rect width="24" height="24" fill="white"/>
</clipPath>
</defs>
</svg>
