<svg width="24" height="24" viewBox="0 0 24 24" fill="none" xmlns="http://www.w3.org/2000/svg">
<g clip-path="url(#clip0_87_1609)">
<path d="M0.163992 4.70502C0.927992 1.59202 5.21099 -0.0549762 7.83999 1.62102C8.97579 0.581005 10.46 0.00415039 12 0.00415039C13.54 0.00415039 15.0242 0.581005 16.16 1.62102C22.596 -1.65798 27.584 7.73402 20.674 10.713C20.487 10.767 20.3215 10.878 20.2007 11.0305C20.0798 11.1831 20.0097 11.3696 20 11.564V17H3.99999V11.564C3.99032 11.3696 3.92016 11.1831 3.79932 11.0305C3.67848 10.878 3.513 10.767 3.32599 10.713C2.14197 10.29 1.15995 9.43777 0.574366 8.32512C-0.0112174 7.21248 -0.157674 5.92051 0.163992 4.70502ZM3.99999 19C3.93877 19.6298 4.0093 20.2654 4.2071 20.8664C4.4049 21.4674 4.72565 22.0207 5.14892 22.491C5.57219 22.9613 6.08873 23.3383 6.66566 23.5981C7.24259 23.8579 7.86729 23.9948 8.49999 24H15.5C16.1327 23.9948 16.7574 23.8579 17.3343 23.5981C17.9113 23.3383 18.4278 22.9613 18.8511 22.491C19.2743 22.0207 19.5951 21.4674 19.7929 20.8664C19.9907 20.2654 20.0612 19.6298 20 19H3.99999Z" fill="#27A33B"/>
</g>
<defs>
<clipPath id="clip0_87_1609">
<rect width="24" height="24" fill="white"/>
</clipPath>
</defs>
</svg>
