<svg width="24" height="24" viewBox="0 0 24 24" fill="none" xmlns="http://www.w3.org/2000/svg">
<g clip-path="url(#clip0_87_1617)">
<path d="M4.5 11C4.567 12.293 12.438 12.291 12.5 11C12.433 9.70703 4.562 9.70903 4.5 11ZM11.5 5.00003C11.567 6.29303 19.438 6.29103 19.5 5.00003C19.433 3.70703 11.562 3.70903 11.5 5.00003ZM8.5 6.00003C3.733 6.00003 0 8.20003 0 11V19C0.162 25.6 16.839 25.6 17 19V11C17 8.20003 13.267 6.00003 8.5 6.00003ZM8.5 8.00003C17.072 8.22703 17.072 13.774 8.5 14C-0.0719995 13.773 -0.0719995 8.22603 8.5 8.00003ZM24 5.00003V13C24 15.059 21.985 16.8 19 17.569V11C18.9909 9.83284 18.6004 8.70065 17.888 7.77603C24.743 6.32603 22.182 2.02303 15.5 2.00003C12.54 2.00003 10.28 2.94503 9.4 4.02803C8.64957 3.98446 7.897 3.99449 7.148 4.05803C8.812 -1.59997 23.83 -1.26197 24 5.00003Z" fill="#27A33B"/>
</g>
<defs>
<clipPath id="clip0_87_1617">
<rect width="24" height="24" fill="white"/>
</clipPath>
</defs>
</svg>
