<svg width="16" height="16" viewBox="0 0 16 16" fill="none" xmlns="http://www.w3.org/2000/svg">
<g clip-path="url(#clip0_252_1283)">
<path d="M7.99998 5.74893C8.5292 5.74893 8.98813 5.39028 9.1161 4.87678L9.16304 4.68837H6.83691L6.88385 4.87678C7.01182 5.39028 7.47076 5.74893 7.99998 5.74893Z" fill="#27A33B"/>
<path d="M10.1292 4.68837L10.0258 5.1034C9.79356 6.03543 8.96053 6.6864 8 6.6864C7.03947 6.6864 6.20641 6.03543 5.97422 5.1034L5.87081 4.68837H0V8.14712H16V4.68837H10.1292Z" fill="#27A33B"/>
<path d="M5.47654 2.54234H6.41404V1.23778L5.57275 0.733813V0H4.63525V1.26503L5.47654 1.769V2.54234Z" fill="#27A33B"/>
<path d="M7.95209 2.54234H8.88959V1.23778L8.04834 0.733813V0H7.11084V1.26503L7.95209 1.769V2.54234Z" fill="#27A33B"/>
<path d="M10.4272 2.54234H11.3647V1.23778L10.5234 0.733813V0H9.58594V1.26503L10.4272 1.769V2.54234Z" fill="#27A33B"/>
<path d="M15.2728 9.81756C15.1059 9.37775 14.6115 9.15946 14.174 9.33243L8.759 11.4732H4.66641V10.5357H7.76703C8.17991 10.5357 8.51459 10.201 8.51459 9.78809C8.51459 9.37521 8.17991 9.04053 7.76703 9.04053H3.75916C3.24631 9.04053 2.74656 9.20222 2.33091 9.50262L0 11.1873V16L3.68444 13.4263L9.45359 13.4197L14.8437 10.8801C15.2423 10.6923 15.4292 10.2295 15.2728 9.81756Z" fill="#27A33B"/>
</g>
<defs>
<clipPath id="clip0_252_1283">
<rect width="16" height="16" fill="white"/>
</clipPath>
</defs>
</svg>
