<svg width="16" height="16" viewBox="0 0 16 16" fill="none" xmlns="http://www.w3.org/2000/svg">
<g clip-path="url(#clip0_252_1291)">
<path d="M13.4399 14.0801L14.3999 15.68H15.68V0.320007H14.3999L13.4399 1.91994V14.0801Z" fill="#27A33B"/>
<path d="M5.92004 11.8068V8.83116L3.3457 10.3174C3.95569 11.12 4.87153 11.6751 5.92004 11.8068Z" fill="#27A33B"/>
<path d="M2.86073 6.51065C2.66719 6.96876 2.56006 7.47257 2.56006 7.99999C2.56006 8.52819 2.66739 9.03123 2.86054 9.48934L5.44006 7.99999L2.86073 6.51065Z" fill="#27A33B"/>
<path d="M3.3457 5.68198L5.92004 7.16883V4.19379C4.87191 4.32492 3.95588 4.87999 3.3457 5.68198Z" fill="#27A33B"/>
<path d="M0.319824 1.91994V14.0801H12.4798V1.91994H0.319824ZM9.75989 4.48007C10.2005 4.48064 10.5598 4.69491 10.5598 4.96007C10.5598 5.22503 10.2005 5.44064 9.75989 5.44007C9.31656 5.44064 8.95925 5.22503 8.95982 4.96007C8.95982 4.69491 9.31656 4.48064 9.75989 4.48007ZM8.47982 6.08C8.74478 6.08 8.95982 6.29504 8.95982 6.56C8.95982 6.82496 8.74478 7.04 8.47982 7.04C8.21486 7.04 7.99982 6.82496 7.99982 6.56C7.99982 6.29504 8.21486 6.08 8.47982 6.08ZM6.39989 12.8C3.74818 12.8 1.59989 10.6513 1.59989 8C1.59989 5.34867 3.74818 3.2 6.39989 3.2C6.56174 3.2 6.72206 3.20883 6.87989 3.22439V7.72314L10.7729 9.97127C10.0204 11.638 8.34734 12.8 6.39989 12.8ZM10.6373 7.43744C10.2629 7.81107 9.6541 7.81242 9.27989 7.43744L10.6373 6.08C11.0117 6.4544 11.0123 7.06189 10.6373 7.43744Z" fill="#27A33B"/>
<path d="M6.87988 11.8039C7.92724 11.6718 8.84116 11.1183 9.45115 10.3163L6.87988 8.83136V11.8039Z" fill="#27A33B"/>
</g>
<defs>
<clipPath id="clip0_252_1291">
<rect width="16" height="16" fill="white"/>
</clipPath>
</defs>
</svg>
