<svg width="16" height="16" viewBox="0 0 16 16" fill="none" xmlns="http://www.w3.org/2000/svg">
<path d="M6.34177 5.67769C6.25024 5.58616 6.12999 5.54041 6.0098 5.54041C5.88955 5.54041 5.76933 5.58616 5.6778 5.67769C5.49477 5.86075 5.49477 6.15862 5.6778 6.34169C5.86083 6.52475 6.15874 6.52469 6.34177 6.34169C6.5248 6.15862 6.5248 5.86075 6.34177 5.67769Z" fill="#27A33B"/>
<path d="M10.3223 9.65832C10.2308 9.56678 10.1105 9.52103 9.99029 9.52103C9.87004 9.52103 9.74982 9.56678 9.65829 9.65832C9.47523 9.84141 9.47523 10.1393 9.65829 10.3223C9.84132 10.5054 10.1392 10.5053 10.3223 10.3223C10.5053 10.1393 10.5053 9.84138 10.3223 9.65832Z" fill="#27A33B"/>
<path d="M15.5312 6.84375H16V2.72616H0V6.84375H0.46875C1.10631 6.84375 1.625 7.36244 1.625 8C1.625 8.63756 1.10631 9.15625 0.46875 9.15625H0V13.2738H16V9.15625H15.5312C14.8937 9.15625 14.375 8.63756 14.375 8C14.375 7.36244 14.8937 6.84375 15.5312 6.84375ZM5.01478 5.01475C5.56341 4.46616 6.456 4.46616 7.00459 5.01475C7.55319 5.56335 7.55316 6.456 7.00456 7.00456C6.73025 7.27885 6.36994 7.416 6.00966 7.416C5.64937 7.416 5.28906 7.27885 5.01478 7.00456C4.46619 6.45597 4.46619 5.56335 5.01478 5.01475ZM4.68306 10.6541L10.654 4.68306L11.3169 5.34597L5.34597 11.317L4.68306 10.6541ZM10.9853 10.9852C10.7109 11.2595 10.3506 11.3967 9.99034 11.3967C9.63003 11.3967 9.26972 11.2595 8.99544 10.9852C8.44684 10.4366 8.44684 9.544 8.99544 8.99541C9.54406 8.44681 10.4367 8.44681 10.9853 8.99541C11.5338 9.544 11.5338 10.4367 10.9853 10.9852Z" fill="#27A33B"/>
</svg>
