<svg width="16" height="16" viewBox="0 0 16 16" fill="none" xmlns="http://www.w3.org/2000/svg">
<path d="M8.17335 6.00067C8.08285 6.00067 8.0184 5.99933 7.99041 5.99871C7.88635 5.99618 7.78434 5.96934 7.69251 5.92034C7.60068 5.87134 7.52159 5.80154 7.46155 5.71651C7.40151 5.63149 7.3622 5.5336 7.34675 5.43067C7.3313 5.32773 7.34014 5.22262 7.37257 5.12371C7.60434 4.42059 7.81267 3.70314 7.99236 2.9896C8.38817 1.52604 9.25408 0.666667 10.3146 0.666667C10.9606 0.690782 11.5707 0.969737 12.0115 1.44251C12.4523 1.91529 12.6879 2.5434 12.6668 3.18945C12.6668 4.74675 11.105 5.42903 10.5913 5.65299C9.81104 5.90586 8.99327 6.02344 8.17335 6.00067ZM10.3146 2C9.65968 2 9.32179 3.17903 9.28533 3.31315C9.17399 3.75586 9.05226 4.19922 8.9214 4.63932C9.30491 4.62554 9.68444 4.5567 10.0484 4.43489C10.689 4.1556 11.3335 3.79297 11.3335 3.18945C11.354 2.8971 11.2586 2.60844 11.0679 2.38586C10.8772 2.16329 10.6067 2.02468 10.3146 2Z" fill="#27A33B"/>
<path d="M7.78597 6.00067C6.9882 6.01561 6.19356 5.89678 5.43506 5.6491C3.62516 4.944 3.34131 3.806 3.3335 3.19011C3.33479 2.84459 3.40554 2.50285 3.54154 2.18522C3.67754 1.86759 3.87601 1.58054 4.12516 1.34115C4.54159 0.920484 5.10562 0.678761 5.69743 0.667333C6.94222 0.703786 7.5301 1.97333 7.95915 2.90041L7.35498 3.18165L7.9598 2.90171C8.2395 3.64366 8.46726 4.40417 8.64144 5.17773C8.66414 5.27374 8.66523 5.37359 8.64463 5.47008C8.62403 5.56656 8.58226 5.65726 8.52233 5.73563C8.46241 5.814 8.38582 5.87807 8.2981 5.92323C8.21039 5.96839 8.11374 5.9935 8.01514 5.99675C7.98389 5.99805 7.90316 6.00067 7.78597 6.00067ZM5.64534 2C5.42072 2.0209 5.212 2.12492 5.06006 2.29167C4.93971 2.40549 4.84303 2.54195 4.77555 2.69322C4.70807 2.84449 4.67112 3.0076 4.66683 3.17318C4.67464 3.79232 5.35303 4.1862 5.92008 4.40755C6.31051 4.53916 6.717 4.61713 7.12842 4.63932C7.02856 4.2388 6.9022 3.84535 6.75016 3.46159L6.7495 3.46029C6.45068 2.81511 6.07894 2.01237 5.65836 2.00067L5.64534 2Z" fill="#27A33B"/>
<path d="M13.0002 4.66667H3.00016C2.55814 4.66667 2.13421 4.84226 1.82165 5.15482C1.50909 5.46738 1.3335 5.89131 1.3335 6.33333V13.6667C1.3335 14.1087 1.50909 14.5326 1.82165 14.8452C2.13421 15.1577 2.55814 15.3333 3.00016 15.3333H13.0002C13.219 15.3333 13.4358 15.2902 13.638 15.2065C13.8402 15.1227 14.0239 15 14.1787 14.8452C14.3335 14.6904 14.4562 14.5067 14.54 14.3045C14.6237 14.1023 14.6668 13.8855 14.6668 13.6667V6.33333C14.6668 6.11446 14.6237 5.89773 14.54 5.69552C14.4562 5.4933 14.3335 5.30957 14.1787 5.1548C14.0239 5.00003 13.8402 4.87727 13.638 4.79351C13.4358 4.70976 13.219 4.66666 13.0002 4.66667ZM10.5638 10.4867L10.1976 10.8529L8.3835 12.6671C8.33317 12.7174 8.27343 12.7573 8.20768 12.7846C8.14192 12.8118 8.07145 12.8258 8.00028 12.8258C7.9291 12.8258 7.85863 12.8118 7.79287 12.7846C7.72712 12.7573 7.66738 12.7174 7.61706 12.6671L5.80274 10.8529L5.43652 10.4867C5.27385 10.3238 5.14934 10.127 5.07197 9.91019C4.9946 9.69343 4.9663 9.46219 4.98911 9.23317C5.01192 9.00414 5.08527 8.78304 5.20388 8.58579C5.32248 8.38854 5.48338 8.22008 5.67497 8.09254C5.98456 7.89554 6.35272 7.81156 6.71712 7.85482C7.08152 7.89808 7.41978 8.06592 7.67464 8.32993L8.00016 8.65548L8.32568 8.32991C8.58054 8.06589 8.91881 7.89805 9.28322 7.8548C9.64762 7.81156 10.0158 7.89557 10.3254 8.09261C10.5169 8.22014 10.6778 8.3886 10.7965 8.58584C10.9151 8.78308 10.9884 9.00418 11.0112 9.2332C11.034 9.46222 11.0057 9.69345 10.9284 9.91021C10.851 10.127 10.7265 10.3239 10.5638 10.4867Z" fill="#27A33B"/>
</svg>
