<svg width="60" height="60" viewBox="0 0 60 60" fill="none" xmlns="http://www.w3.org/2000/svg">
<path d="M0 30C0 13.4315 13.4315 0 30 0C46.5685 0 60 13.4315 60 30C60 46.5685 46.5685 60 30 60H0.594059C0.265969 60 0 59.734 0 59.4059V30Z" fill="#64C355"/>
<g clip-path="url(#clip0_2005_3248)">
<path d="M38.5 23H36.565C36.766 22.642 36.907 22.25 36.966 21.831C37.093 20.943 36.866 20.06 36.329 19.343C35.791 18.625 35.006 18.16 34.118 18.033C33.233 17.908 32.347 18.133 31.63 18.67C30.934 19.192 30.404 19.866 30 20.552C29.596 19.867 29.066 19.192 28.37 18.671C27.653 18.133 26.769 17.909 25.882 18.034C24.994 18.161 24.209 18.626 23.672 19.343C23.134 20.06 22.907 20.944 23.034 21.831C23.094 22.25 23.234 22.644 23.433 23H21.5C19.57 23 18 24.57 18 26.5V27C18 28.103 18.897 29 20 29H40C41.103 29 42 28.103 42 27V26.5C42 24.57 40.43 23 38.5 23ZM32.829 20.271C33.118 20.054 33.477 19.961 33.835 20.014C34.193 20.065 34.511 20.253 34.729 20.543C34.947 20.833 35.038 21.19 34.987 21.548C34.936 21.907 34.748 22.224 34.426 22.466C34.389 22.495 34.056 22.744 33.408 22.999H31.1C31.322 22.242 31.85 21.005 32.83 20.27L32.829 20.271ZM25.542 22.442C25.253 22.224 25.064 21.907 25.014 21.548C24.963 21.19 25.054 20.833 25.273 20.542C25.49 20.252 25.807 20.064 26.166 20.013C26.52 19.961 26.882 20.053 27.172 20.271C28.152 21.006 28.679 22.242 28.902 23H26.594C25.946 22.745 25.61 22.494 25.544 22.442H25.542ZM31.324 35.645C31.031 35.396 30.924 34.991 31.057 34.63C31.189 34.269 31.533 34.029 31.917 34.029H34.668L35.642 31.297C35.775 30.938 36.118 30.7 36.501 30.7C36.884 30.7 37.227 30.938 37.36 31.297L38.334 34.029H41.085C41.47 34.029 41.814 34.27 41.946 34.631C42.078 34.993 41.97 35.399 41.675 35.647L39.506 37.414L40.403 40.146C40.526 40.516 40.401 40.923 40.092 41.16C39.783 41.397 39.358 41.414 39.032 41.202L36.508 39.558L34.026 41.219C33.872 41.322 33.694 41.374 33.516 41.374C33.322 41.374 33.129 41.313 32.966 41.191C32.654 40.958 32.525 40.553 32.641 40.182L33.503 37.417L31.324 35.644V35.645ZM31.049 42H25C22.239 42 20 39.761 20 37V31H33.624L33.257 32.029H31.917C30.697 32.029 29.597 32.799 29.18 33.939C28.759 35.082 29.1 36.38 30.062 37.197L31.191 38.115L30.733 39.585C30.473 40.414 30.609 41.293 31.049 42Z" fill="white"/>
</g>
<defs>
<clipPath id="clip0_2005_3248">
<rect width="24" height="24" fill="white" transform="translate(18 18)"/>
</clipPath>
</defs>
</svg>
