<svg width="36" height="36" viewBox="0 0 36 36" fill="none" xmlns="http://www.w3.org/2000/svg">
<path d="M0 18C0 8.05888 8.05888 0 18 0C27.9411 0 36 8.05888 36 18C36 27.9411 27.9411 36 18 36H0.356433C0.159579 36 0 35.8404 0 35.6436V18Z" fill="#64C355"/>
<g clip-path="url(#clip0_351_2425)">
<path d="M18 10.8C16.576 10.8 15.1839 11.2223 13.9999 12.0135C12.8159 12.8046 11.893 13.9291 11.3481 15.2447C10.8031 16.5604 10.6605 18.008 10.9383 19.4047C11.2162 20.8014 11.9019 22.0843 12.9088 23.0912C13.9158 24.0982 15.1987 24.7839 16.5953 25.0617C17.992 25.3395 19.4397 25.1969 20.7553 24.652C22.0709 24.107 23.1954 23.1842 23.9866 22.0002C24.7777 20.8161 25.2 19.4241 25.2 18C25.1979 16.0911 24.4387 14.261 23.0889 12.9112C21.7391 11.5613 19.9089 10.8021 18 10.8ZM18 23.4C16.932 23.4 15.8879 23.0833 14.9999 22.49C14.1119 21.8966 13.4198 21.0533 13.011 20.0665C12.6023 19.0798 12.4954 17.9941 12.7038 16.9466C12.9121 15.8991 13.4264 14.9369 14.1816 14.1817C14.9368 13.4265 15.899 12.9122 16.9465 12.7038C17.994 12.4954 19.0798 12.6024 20.0665 13.0111C21.0532 13.4198 21.8966 14.1119 22.4899 15C23.0833 15.888 23.4 16.932 23.4 18C23.3984 19.4317 22.829 20.8043 21.8166 21.8167C20.8043 22.829 19.4317 23.3985 18 23.4Z" fill="white"/>
<path d="M18.003 22.2001C18.5 22.2001 18.903 21.7972 18.903 21.3001C18.903 20.8031 18.5 20.4001 18.003 20.4001C17.5059 20.4001 17.103 20.8031 17.103 21.3001C17.103 21.7972 17.5059 22.2001 18.003 22.2001Z" fill="white"/>
<path d="M18.4542 13.7922C18.0872 13.7264 17.7102 13.7419 17.3498 13.8376C16.9894 13.9333 16.6544 14.1068 16.3684 14.346C16.0823 14.5852 15.8522 14.8842 15.6943 15.2219C15.5363 15.5597 15.4544 15.928 15.4542 16.3008C15.4542 16.5395 15.549 16.7684 15.7178 16.9372C15.8865 17.106 16.1155 17.2008 16.3542 17.2008C16.5929 17.2008 16.8218 17.106 16.9906 16.9372C17.1593 16.7684 17.2542 16.5395 17.2542 16.3008C17.2547 16.1688 17.2902 16.0392 17.3569 15.9253C17.4237 15.8114 17.5194 15.7172 17.6343 15.6521C17.7492 15.5871 17.8793 15.5537 18.0113 15.5552C18.1434 15.5566 18.2727 15.593 18.3861 15.6606C18.4996 15.7281 18.5931 15.8245 18.6573 15.9399C18.7215 16.0553 18.754 16.1856 18.7516 16.3176C18.7492 16.4496 18.7119 16.5786 18.6436 16.6916C18.5752 16.8046 18.4782 16.8974 18.3624 16.9608C17.9911 17.1163 17.6756 17.3805 17.4573 17.7187C17.2391 18.0569 17.1283 18.4533 17.1396 18.8556C17.1396 19.0943 17.2344 19.3232 17.4032 19.492C17.5719 19.6608 17.8009 19.7556 18.0396 19.7556C18.2783 19.7556 18.5072 19.6608 18.676 19.492C18.8447 19.3232 18.9396 19.0943 18.9396 18.8556C18.939 18.8118 18.9422 18.7681 18.9492 18.7248C19.0332 18.6481 19.1285 18.5848 19.2318 18.537C19.6927 18.283 20.0636 17.8925 20.2937 17.4191C20.5238 16.9458 20.6017 16.4129 20.5168 15.8935C20.4318 15.3741 20.1882 14.8937 19.8193 14.5184C19.4504 14.143 18.9744 13.891 18.4566 13.797L18.4542 13.7922Z" fill="white"/>
</g>
<defs>
<clipPath id="clip0_351_2425">
<rect width="14.4" height="14.4" fill="white" transform="translate(10.8 10.8)"/>
</clipPath>
</defs>
</svg>
