<svg width="60" height="60" viewBox="0 0 60 60" fill="none" xmlns="http://www.w3.org/2000/svg">
<path d="M0 30C0 13.4315 13.4315 0 30 0C46.5685 0 60 13.4315 60 30C60 46.5685 46.5685 60 30 60H0.594059C0.265969 60 0 59.734 0 59.4059V30Z" fill="#FF8545"/>
<g clip-path="url(#clip0_328_2526)">
<path d="M30 18C23.38 18 18 23.38 18 30C18 36.62 23.38 42 30 42C36.62 42 42 36.62 42 30C42 23.38 36.62 18 30 18ZM35.17 29.62L33 31.39L33.9 34.12C34.02 34.49 33.9 34.9 33.59 35.13C33.28 35.37 32.86 35.38 32.53 35.17L30.01 33.53L27.53 35.19C27.38 35.29 27.2 35.34 27.02 35.34C26.83 35.34 26.63 35.28 26.47 35.16C26.16 34.93 26.03 34.52 26.15 34.15L27.01 31.39L24.83 29.62C24.54 29.37 24.43 28.97 24.56 28.61C24.69 28.25 25.04 28.01 25.42 28.01H28.17L29.14 25.4C29.27 25.04 29.62 24.8 30 24.8C30.38 24.8 30.73 25.04 30.86 25.4L31.83 28.01H34.58C34.96 28.01 35.31 28.25 35.44 28.61C35.57 28.97 35.46 29.38 35.17 29.63V29.62Z" fill="white"/>
</g>
<defs>
<clipPath id="clip0_328_2526">
<rect width="24" height="24" fill="white" transform="translate(18 18)"/>
</clipPath>
</defs>
</svg>
