<svg width="172" height="189" viewBox="0 0 172 189" fill="none" xmlns="http://www.w3.org/2000/svg">
<g clip-path="url(#clip0_2010_2581)">
<path d="M17.4511 164.716C17.3286 165.268 17.1449 165.636 16.9 165.881H20.6351V161.282H17.7572L17.696 162.631C17.6347 163.489 17.5735 164.164 17.4511 164.716ZM22.4108 165.881V168.027H21.6148V166.556H16.2264V168.027H15.4304V165.881H15.7978C16.2264 165.881 16.4713 165.574 16.5938 164.961C16.7163 164.409 16.8387 163.612 16.9 162.57L16.9612 160.546H21.3699V165.881H22.4108Z" fill="#00934D"/>
<path d="M28.1666 165.636C28.534 165.452 28.7789 165.145 28.9626 164.777C29.1463 164.409 29.2688 163.98 29.2688 163.551C29.2688 163.121 29.1463 162.692 28.9626 162.324C28.7789 161.956 28.534 161.711 28.1666 161.466C27.7992 161.282 27.4318 161.159 27.0032 161.159C26.5746 161.159 26.2072 161.282 25.8398 161.466C25.4724 161.65 25.2275 161.956 25.0438 162.324C24.8601 162.692 24.7376 163.121 24.7376 163.551C24.7376 163.98 24.8601 164.409 25.0438 164.777C25.2275 165.145 25.5336 165.39 25.8398 165.636C26.2072 165.82 26.5746 165.942 27.0032 165.942C27.4931 165.942 27.8605 165.82 28.1666 165.636ZM25.4724 166.249C24.9826 166.004 24.6152 165.636 24.3702 165.145C24.1253 164.654 23.9416 164.164 23.9416 163.551C23.9416 162.937 24.0641 162.447 24.3702 161.956C24.6152 161.466 24.9826 161.098 25.4724 160.852C25.9623 160.607 26.4521 160.484 27.0644 160.484C27.6155 160.484 28.1666 160.607 28.6565 160.852C29.1463 161.098 29.5137 161.466 29.7586 161.956C30.0036 162.447 30.126 162.937 30.126 163.551C30.126 164.164 30.0036 164.654 29.7586 165.145C29.5137 165.636 29.1463 166.004 28.6565 166.249C28.1666 166.494 27.6768 166.617 27.0644 166.617C26.4521 166.617 25.9623 166.494 25.4724 166.249Z" fill="#00934D"/>
<path d="M33.3101 166.249C32.8202 166.004 32.4528 165.636 32.2079 165.145C31.963 164.654 31.7793 164.164 31.7793 163.551C31.7793 162.937 31.9017 162.447 32.2079 161.956C32.4528 161.466 32.8202 161.098 33.3101 160.852C33.7999 160.607 34.2898 160.484 34.9021 160.484C35.392 160.484 35.8818 160.607 36.3104 160.791C36.7391 160.975 37.0452 161.282 37.2901 161.65L36.6778 162.079C36.4941 161.772 36.2492 161.527 35.943 161.404C35.6369 161.282 35.3307 161.159 34.9633 161.159C34.5347 161.159 34.1673 161.282 33.7999 161.466C33.4325 161.65 33.1876 161.956 33.0039 162.324C32.8202 162.692 32.6978 163.121 32.6978 163.551C32.6978 164.041 32.8202 164.409 33.0039 164.777C33.1876 165.145 33.4938 165.39 33.7999 165.574C34.1673 165.758 34.5347 165.881 34.9633 165.881C35.3307 165.881 35.6369 165.82 35.943 165.636C36.2492 165.513 36.4941 165.268 36.6778 164.961L37.2901 165.39C37.0452 165.758 36.7391 166.065 36.3104 166.249C35.8818 166.433 35.4532 166.555 34.9021 166.555C34.351 166.617 33.7999 166.494 33.3101 166.249Z" fill="#00934D"/>
<path d="M43.5358 161.282H41.2702V166.556H40.4742V161.282H38.1474V160.546H43.5358V161.282Z" fill="#00934D"/>
<path d="M48.2506 165.697C48.5568 165.513 48.8017 165.206 48.9854 164.777V163.796H47.0872C46.0463 163.796 45.5564 164.164 45.5564 164.9C45.5564 165.268 45.6789 165.513 45.9851 165.758C46.23 165.942 46.5974 166.065 47.0872 166.065C47.5158 166.004 47.9445 165.881 48.2506 165.697ZM49.1691 161.098C49.5977 161.466 49.7814 162.079 49.7814 162.815V166.555H48.9854V165.636C48.8017 165.942 48.5568 166.187 48.1894 166.371C47.822 166.555 47.3934 166.617 46.9035 166.617C46.23 166.617 45.6789 166.433 45.3115 166.126C44.9441 165.82 44.6992 165.39 44.6992 164.838C44.6992 164.348 44.8829 163.918 45.2503 163.612C45.6177 163.305 46.23 163.121 47.026 163.121H48.9854V162.753C48.9854 162.263 48.8629 161.833 48.5568 161.588C48.2506 161.343 47.822 161.159 47.2709 161.159C46.9035 161.159 46.5361 161.22 46.1688 161.343C45.8014 161.466 45.4952 161.65 45.2503 161.895L44.8829 161.282C45.189 161.036 45.5564 160.791 45.9851 160.668C46.4137 160.546 46.8423 160.484 47.3322 160.484C48.1282 160.484 48.7405 160.73 49.1691 161.098Z" fill="#00934D"/>
<path d="M56.3944 165.697C56.6394 165.513 56.7618 165.268 56.7618 164.9C56.7618 164.532 56.6394 164.286 56.3944 164.102C56.1495 163.918 55.7821 163.857 55.2923 163.857H53.2716V165.942H55.1698C55.7209 165.942 56.1495 165.881 56.3944 165.697ZM53.3329 163.244H55.1698C55.6597 163.244 55.9658 163.183 56.2108 162.999C56.4557 162.815 56.5781 162.569 56.5781 162.201C56.5781 161.895 56.4557 161.588 56.2108 161.465C55.9658 161.281 55.5984 161.22 55.1698 161.22H53.3329V163.244ZM57.5579 164.961C57.5579 165.513 57.3742 165.881 56.9455 166.187C56.5781 166.494 55.9658 166.617 55.231 166.617H52.4756V160.607H55.1086C55.7821 160.607 56.3332 160.73 56.7006 161.036C57.068 161.282 57.3129 161.711 57.3129 162.201C57.3129 162.508 57.2517 162.815 57.068 163.06C56.8843 163.305 56.6394 163.489 56.3332 163.612C57.1905 163.673 57.5579 164.164 57.5579 164.961Z" fill="#00934D"/>
<path d="M62.2115 163.919H60.8644V166.556H60.0683V160.546H60.8644V163.183H62.2727L64.3546 160.546H65.273L62.885 163.489L65.3955 166.556H64.477L62.2115 163.919Z" fill="#00934D"/>
<path d="M70.1104 165.697C70.4165 165.513 70.6614 165.206 70.8451 164.777V163.796H68.947C67.906 163.796 67.4162 164.164 67.4162 164.9C67.4162 165.268 67.5386 165.513 67.8448 165.758C68.0897 165.942 68.4571 166.065 68.947 166.065C69.3756 166.004 69.8042 165.881 70.1104 165.697ZM71.0288 161.098C71.4575 161.466 71.6412 162.079 71.6412 162.815V166.555H70.8451V165.636C70.6614 165.942 70.4165 166.187 70.0491 166.371C69.6817 166.555 69.2531 166.617 68.7633 166.617C68.0897 166.617 67.5386 166.433 67.1712 166.126C66.8038 165.82 66.5589 165.39 66.5589 164.838C66.5589 164.348 66.7426 163.918 67.11 163.612C67.4774 163.305 68.0897 163.121 68.8857 163.121H70.7839V162.753C70.7839 162.263 70.6614 161.833 70.3553 161.588C70.0491 161.343 69.6205 161.159 69.0694 161.159C68.702 161.159 68.3346 161.22 67.9672 161.343C67.5999 161.466 67.2937 161.65 67.0488 161.895L66.6814 161.282C66.9875 161.036 67.3549 160.791 67.7835 160.668C68.2122 160.546 68.6408 160.484 69.1307 160.484C69.9879 160.484 70.6002 160.73 71.0288 161.098Z" fill="#00934D"/>
<path d="M81.8056 165.697C82.0506 165.513 82.173 165.268 82.173 164.9C82.173 164.532 82.0506 164.286 81.8056 164.102C81.5607 163.918 81.1933 163.857 80.7035 163.857H78.6828V165.942H80.581C81.1933 165.942 81.5607 165.881 81.8056 165.697ZM78.744 163.244H80.581C81.0708 163.244 81.377 163.183 81.6219 162.999C81.8669 162.815 81.9893 162.569 81.9893 162.201C81.9893 161.895 81.8669 161.588 81.6219 161.465C81.377 161.281 81.0096 161.22 80.581 161.22H78.744V163.244ZM83.0303 164.961C83.0303 165.513 82.8466 165.881 82.4179 166.187C82.0506 166.494 81.4382 166.617 80.7035 166.617H77.948V160.607H80.581C81.2545 160.607 81.8056 160.73 82.173 161.036C82.5404 161.282 82.7853 161.711 82.7853 162.201C82.7853 162.508 82.7241 162.815 82.5404 163.06C82.3567 163.305 82.1118 163.489 81.8056 163.612C82.6016 163.673 83.0303 164.164 83.0303 164.961Z" fill="#00934D"/>
<path d="M87.6839 163.919H86.3368V166.556H85.4795V160.546H86.3368V163.183H87.6839L89.827 160.546H90.6842L88.2962 163.489L90.8679 166.556H89.8882L87.6839 163.919Z" fill="#00934D"/>
<path d="M97.4809 160.546L94.4806 167.291C94.2357 167.843 93.9295 168.272 93.6233 168.518C93.3172 168.763 92.8886 168.886 92.4599 168.886C92.1538 168.886 91.9089 168.824 91.6639 168.763C91.419 168.702 91.1741 168.518 90.9904 168.334L91.3578 167.721C91.6639 168.027 92.0313 168.15 92.4599 168.15C92.7049 168.15 92.9498 168.089 93.1335 167.905C93.3172 167.782 93.5009 167.475 93.6846 167.107L93.9295 166.494L91.2353 160.484H92.0926L94.3581 165.636L96.6237 160.484L97.4809 160.546Z" fill="#00934D"/>
<path d="M100.053 166.249C99.5628 166.004 99.1954 165.636 98.9505 165.145C98.7056 164.654 98.5219 164.164 98.5219 163.551C98.5219 162.937 98.6444 162.447 98.9505 161.956C99.1954 161.466 99.5628 161.098 100.053 160.852C100.543 160.607 101.032 160.484 101.645 160.484C102.135 160.484 102.624 160.607 103.053 160.791C103.482 160.975 103.788 161.282 104.033 161.65L103.42 162.079C103.237 161.772 102.992 161.527 102.686 161.404C102.379 161.282 102.073 161.159 101.706 161.159C101.277 161.159 100.91 161.282 100.543 161.466C100.175 161.65 99.9302 161.956 99.7465 162.324C99.5628 162.692 99.4404 163.121 99.4404 163.551C99.4404 164.041 99.5628 164.409 99.7465 164.777C99.9302 165.145 100.236 165.39 100.543 165.574C100.91 165.758 101.277 165.881 101.706 165.881C102.073 165.881 102.379 165.82 102.686 165.636C102.992 165.513 103.237 165.268 103.42 164.961L104.033 165.39C103.788 165.758 103.482 166.065 103.053 166.249C102.624 166.433 102.196 166.555 101.645 166.555C101.094 166.617 100.543 166.494 100.053 166.249Z" fill="#00934D"/>
<path d="M106.176 160.546H106.972V163.244H110.768V160.546H111.564V166.556H110.768V163.919H106.972V166.556H106.176V160.546Z" fill="#00934D"/>
<path d="M118.116 165.636C118.483 165.452 118.728 165.145 118.912 164.777C119.096 164.409 119.218 163.98 119.218 163.551C119.218 163.121 119.096 162.692 118.912 162.324C118.728 161.956 118.483 161.711 118.116 161.466C117.749 161.282 117.381 161.159 116.953 161.159C116.524 161.159 116.157 161.282 115.789 161.466C115.422 161.65 115.177 161.956 114.993 162.324C114.81 162.692 114.687 163.121 114.687 163.551C114.687 163.98 114.81 164.409 114.993 164.777C115.177 165.145 115.483 165.39 115.789 165.636C116.157 165.82 116.524 165.942 116.953 165.942C117.381 165.942 117.749 165.82 118.116 165.636ZM115.361 166.249C114.871 166.004 114.503 165.636 114.258 165.145C114.014 164.654 113.83 164.164 113.83 163.551C113.83 162.937 113.952 162.447 114.258 161.956C114.503 161.466 114.871 161.098 115.361 160.852C115.85 160.607 116.34 160.484 116.953 160.484C117.504 160.484 118.055 160.607 118.545 160.852C119.035 161.098 119.402 161.466 119.647 161.956C119.892 162.447 120.014 162.937 120.014 163.551C120.014 164.164 119.892 164.654 119.647 165.145C119.402 165.636 119.035 166.004 118.545 166.249C118.055 166.494 117.565 166.617 116.953 166.617C116.34 166.617 115.85 166.494 115.361 166.249Z" fill="#00934D"/>
<path d="M123.811 159.319C123.504 159.074 123.321 158.706 123.321 158.215H123.933C123.933 158.522 124.056 158.767 124.239 158.951C124.423 159.135 124.729 159.197 125.035 159.197C125.341 159.197 125.648 159.135 125.831 158.951C126.015 158.767 126.137 158.522 126.137 158.215H126.75C126.75 158.706 126.566 159.074 126.26 159.319C125.954 159.564 125.525 159.687 125.035 159.687C124.545 159.687 124.117 159.564 123.811 159.319ZM122.341 160.546H123.137V165.329L127.178 160.546H127.913V166.555H127.117V161.772L123.137 166.555H122.402L122.341 160.546Z" fill="#00934D"/>
<path d="M135.2 161.772C134.832 162.14 134.587 162.631 134.526 163.244H138.812C138.751 162.631 138.506 162.14 138.139 161.772C137.771 161.404 137.282 161.22 136.669 161.22C136.118 161.22 135.628 161.404 135.2 161.772ZM139.608 163.796H134.587C134.649 164.409 134.894 164.9 135.322 165.329C135.751 165.697 136.302 165.881 136.975 165.881C137.343 165.881 137.71 165.82 138.016 165.697C138.323 165.574 138.629 165.39 138.812 165.084L139.241 165.636C138.996 165.942 138.629 166.187 138.261 166.371C137.833 166.555 137.404 166.617 136.914 166.617C136.302 166.617 135.751 166.494 135.261 166.249C134.771 166.004 134.404 165.636 134.159 165.145C133.914 164.654 133.73 164.164 133.73 163.551C133.73 162.937 133.853 162.447 134.098 161.956C134.342 161.466 134.71 161.098 135.138 160.852C135.567 160.607 136.057 160.484 136.669 160.484C137.22 160.484 137.71 160.607 138.139 160.852C138.567 161.098 138.935 161.466 139.18 161.956C139.425 162.447 139.547 162.937 139.547 163.551L139.608 163.796Z" fill="#00934D"/>
<path d="M142.792 164.716C142.67 165.268 142.486 165.636 142.241 165.881H145.977V161.282H143.099L143.037 162.631C142.976 163.489 142.915 164.164 142.792 164.716ZM147.691 165.881V168.027H146.956V166.556H141.568V168.027H140.772V165.881H141.139C141.568 165.881 141.813 165.574 141.935 164.961C142.058 164.409 142.18 163.612 142.241 162.57L142.303 160.546H146.711V165.881H147.691Z" fill="#00934D"/>
<path d="M155.712 160.546H156.508V166.556H155.712V160.546ZM153.447 165.636C153.753 165.39 153.875 165.084 153.875 164.593C153.875 164.164 153.753 163.796 153.447 163.612C153.141 163.428 152.712 163.305 152.161 163.305H150.63V166.004H152.161C152.773 166.004 153.202 165.881 153.447 165.636ZM154.12 163.183C154.488 163.489 154.733 163.98 154.733 164.593C154.733 165.207 154.549 165.697 154.12 166.065C153.692 166.433 153.079 166.556 152.283 166.556H149.895V160.546H150.691V162.631H152.406C153.141 162.692 153.692 162.876 154.12 163.183Z" fill="#00934D"/>
<path fill-rule="evenodd" clip-rule="evenodd" d="M0.551072 138.776C0.551072 142.762 3.61266 143.866 7.65396 144.54C9.61337 144.847 11.2666 144.908 11.2666 146.625C11.2666 148.465 9.36845 149.078 7.65396 149.078C5.75577 149.078 3.61266 148.404 2.38803 147.239L0.0612183 150.305C1.9594 151.899 4.77606 152.942 7.59272 152.942C11.634 152.942 15.4304 150.795 15.4304 146.319C15.4304 142.639 12.7974 141.474 7.65396 140.554C6.12316 140.248 4.71483 140.002 4.71483 138.469C4.71483 136.691 6.49055 136.078 8.08258 136.078C9.8583 136.078 11.7565 136.814 12.8587 137.979L15.1855 134.851C13.2873 133.196 10.5931 132.214 8.02135 132.214C4.22498 132.214 0.551072 134.422 0.551072 138.776Z" fill="url(#paint0_linear_2010_2581)"/>
<path fill-rule="evenodd" clip-rule="evenodd" d="M35.392 145.828V132.889H31.2282V146.073C31.2282 148.404 29.2076 149.078 27.5543 149.078C25.901 149.078 23.8804 148.404 23.8804 146.073V132.889H19.7166V145.828C19.7166 150.611 23.513 152.942 27.5543 152.942C31.5956 152.942 35.392 150.611 35.392 145.828Z" fill="url(#paint1_linear_2010_2581)"/>
<path fill-rule="evenodd" clip-rule="evenodd" d="M48.618 132.889H40.7191V152.328H44.8829V145.644H48.618C52.1082 145.644 54.9861 143.743 54.9861 139.266C54.9861 134.851 52.047 132.889 48.618 132.889ZM44.8829 136.752H48.618C49.7814 136.752 50.8224 137.059 50.8224 139.266C50.8224 141.474 49.7202 141.719 48.618 141.719H44.8829V136.752Z" fill="url(#paint2_linear_2010_2581)"/>
<path fill-rule="evenodd" clip-rule="evenodd" d="M72.2535 152.267V148.404H63.2524V144.54H70.8451V140.615H63.2524V136.752H72.2535V132.889H59.0887V152.267H72.2535Z" fill="url(#paint3_linear_2010_2581)"/>
<path fill-rule="evenodd" clip-rule="evenodd" d="M85.0509 132.889H77.152V152.328H81.3158V145.644H83.2752L87.2552 152.328H91.9701L87.5614 145.276C89.827 144.54 91.419 142.639 91.419 139.328C91.419 134.851 88.4799 132.889 85.0509 132.889ZM81.3158 136.752H85.0509C86.2143 136.752 87.2552 137.059 87.2552 139.266C87.2552 141.474 86.1531 141.719 85.0509 141.719H81.3158V136.752Z" fill="url(#paint4_linear_2010_2581)"/>
<path fill-rule="evenodd" clip-rule="evenodd" d="M112.483 142.578C112.483 149.692 116.279 152.942 121.361 152.942C126.444 152.942 130.24 149.692 130.24 142.578C130.24 135.465 126.444 132.214 121.361 132.214C116.279 132.214 112.483 135.465 112.483 142.578ZM116.646 142.578C116.646 137.672 118.545 136.078 121.361 136.078C124.178 136.078 126.076 137.611 126.076 142.578C126.076 147.545 124.178 149.078 121.361 149.078C118.545 149.078 116.646 147.484 116.646 142.578Z" fill="url(#paint5_linear_2010_2581)"/>
<path fill-rule="evenodd" clip-rule="evenodd" d="M134.098 142.578C134.098 149.692 137.894 152.942 142.976 152.942C148.058 152.942 151.855 149.692 151.855 142.578C151.855 135.465 148.058 132.214 142.976 132.214C137.894 132.214 134.098 135.465 134.098 142.578ZM138.261 142.578C138.261 137.672 140.159 136.078 142.976 136.078C145.793 136.078 147.691 137.611 147.691 142.578C147.691 147.545 145.793 149.078 142.976 149.078C140.159 149.078 138.261 147.484 138.261 142.578Z" fill="url(#paint6_linear_2010_2581)"/>
<path fill-rule="evenodd" clip-rule="evenodd" d="M162.387 132.889H156.57V152.328H162.387C167.897 152.328 172 149.262 172 142.639C172 135.894 167.897 132.889 162.387 132.889ZM160.672 136.752H162.264C165.693 136.752 167.836 138.224 167.836 142.578C167.836 146.932 165.693 148.404 162.264 148.404H160.672V136.752Z" fill="url(#paint7_linear_2010_2581)"/>
<path fill-rule="evenodd" clip-rule="evenodd" d="M109.482 132.889H96.3176V152.267H100.481V144.54H108.074V140.615H100.481V136.752H109.482V132.889Z" fill="url(#paint8_linear_2010_2581)"/>
<path d="M86.4592 35.0772L77.3357 14.0432L84.6835 13.4299L84.6223 12.0195L76.7234 12.6327L72.8046 3.67944L71.3962 5.94842L74.2741 12.8167L70.7839 13.1233L70.9064 14.5338L74.8864 14.2271L75.8661 16.5574L67.2937 17.232L69.8042 35.3839H79.4176L78.4379 22.7511L83.765 35.3839L86.4592 35.0772Z" fill="#7DC1D0"/>
<path d="M108.258 1.22649C106.849 2.33032 100.91 -1.8397 104.706 8.52403C106.237 8.64668 115.544 9.62786 116.463 9.38256C119.157 8.58535 119.463 1.96238 116.585 1.71708C114.442 1.53311 115.116 4.47666 114.503 4.8446C113.952 5.15122 113.279 4.8446 112.973 4.35401C112.36 3.5568 113.034 2.33032 112.666 1.41047C112.115 -0.0613056 110.707 -0.735867 108.258 1.22649Z" fill="#9DC147"/>
<path d="M108.87 9.56657C108.625 9.44392 108.319 9.3826 108.135 9.32128C108.319 7.97215 107.952 6.99097 107.339 6.25509C107.4 5.33523 107.278 4.35405 106.237 3.86346C105.135 3.37287 104.89 3.92478 104.461 4.53802C103.176 4.4767 103.175 2.6983 102.869 1.77845C102.624 1.10389 102.318 0.797266 101.583 0.735942C100.604 0.674619 100.298 1.28786 99.6241 1.83977C98.4607 2.75963 96.44 0.919914 95.5828 2.45301C94.6643 4.10875 95.8277 6.92965 96.3788 8.46274L97.4197 8.52407C97.1748 10.3638 97.236 12.3261 97.8483 13.9819C100.114 13.9819 110.156 14.1045 110.462 13.9206C111.074 13.6753 112.238 10.7317 108.87 9.56657Z" fill="#84A148"/>
<path d="M100.91 35.3839L104.523 14.1659C106.176 4.59936 118.177 7.72687 118.177 7.72687L113.462 35.3839H100.91Z" fill="#EBC337"/>
<path d="M90.623 35.3837L96.6237 3.86328L97.3585 3.98593C106.543 5.88697 104.829 12.2646 104.461 14.4723L100.91 35.3224H90.623V35.3837Z" fill="#ECB037"/>
<path d="M139.425 23.5484L136.363 19.3784C135.812 18.6425 135.077 18.1519 134.159 17.968L124.117 16.0669C123.811 16.0056 123.566 16.1896 123.443 16.4962L121.851 22.9965C119.892 23.1805 118.483 23.9164 118.239 24.9589L115.912 35.5066H136.608L139.425 24.223C139.608 24.039 139.608 23.7937 139.425 23.5484Z" fill="#3F4543"/>
<path d="M124.913 17.4774L127.056 20.4209C127.668 21.2794 128.587 21.8314 129.689 22.0153L137.71 23.4871C138.139 23.5484 138.445 23.1192 138.2 22.7512L135.628 19.3784C135.2 18.8265 134.526 18.3972 133.791 18.2746L125.403 16.7415C124.974 16.6802 124.668 17.1094 124.913 17.4774Z" fill="#FEFEFE"/>
<path d="M128.525 18.8264L129.505 20.1142C129.811 20.4822 130.24 20.7275 130.669 20.7888L134.342 21.402C134.526 21.4634 134.649 21.2181 134.526 21.0954L133.363 19.6236C133.179 19.3784 132.873 19.1944 132.506 19.1331L128.709 18.4585C128.525 18.5198 128.403 18.7038 128.525 18.8264Z" fill="#ED6C76"/>
<path d="M131.587 27.6571C131.281 29.0676 128.281 29.6195 124.852 28.8836C121.423 28.1477 118.912 26.4306 119.218 25.0202C119.524 23.6097 122.525 23.0578 125.954 23.7937C129.383 24.4683 131.893 26.2467 131.587 27.6571Z" fill="#FCFBFD"/>
<path d="M127.852 26.8599C127.729 27.4118 126.566 27.5958 125.28 27.3505C123.994 27.0438 123.015 26.3693 123.137 25.8787C123.26 25.3268 124.423 25.1428 125.709 25.3881C126.995 25.6334 127.974 26.308 127.852 26.8599Z" fill="#FDCD69"/>
<path d="M89.8882 15.5149L89.3984 13.1233L66.1915 14.8404L66.0691 17.3546L77.948 16.4348L79.4176 35.3838H88.9697L88.6636 15.5762L89.8882 15.5149Z" fill="#00949B"/>
<path d="M47.5159 28.2088L45.5564 29.0674L38.4536 12.4486L40.4742 11.5901L47.5159 28.2088Z" fill="#EBC337"/>
<path d="M57.6803 26.7371L59.8234 27.0437L62.0278 9.07586L59.8847 8.83057L57.6803 26.7371Z" fill="#EBC337"/>
<path d="M46.4137 28.9448L44.2706 29.2515L41.6988 11.4062L43.8419 11.0996L46.4137 28.9448Z" fill="#ED8D37"/>
<path d="M49.3528 28.5156L47.2097 28.8223L44.6379 10.977L46.7811 10.6704L49.3528 28.5156Z" fill="#ED8D37"/>
<path d="M52.2919 28.1475L50.1488 28.4541L47.5771 10.5476L49.7814 10.241L52.2919 28.1475Z" fill="#ED8D37"/>
<path d="M55.231 27.7183L53.0879 28.0249L50.5774 10.1184L52.7205 9.81177L55.231 27.7183Z" fill="#ED8D37"/>
<path d="M58.1702 27.2891L56.0271 27.5957L53.5166 9.68919L55.6597 9.38257L58.1702 27.2891Z" fill="#ED8D37"/>
<path d="M61.1705 26.8599L59.0274 27.1665L56.4557 9.25999L58.5988 8.95337L61.1705 26.8599Z" fill="#ED8D37"/>
<path d="M58.3539 16.4348L58.5376 17.6612C58.8437 19.6236 57.4354 21.4633 55.476 21.7699L48.3119 22.8124C46.3524 23.1191 44.5155 21.7086 44.2093 19.7463L44.0256 18.5198L39.5557 19.133L43.1072 35.3838H64.1709L62.885 15.8215C62.8238 15.8215 58.3539 16.4348 58.3539 16.4348Z" fill="#DC3B37"/>
<path fill-rule="evenodd" clip-rule="evenodd" d="M37.9637 58.8096L89.827 91.7405H132.261L66.1303 51.3281L37.9637 58.8096Z" fill="url(#paint9_linear_2010_2581)"/>
<path fill-rule="evenodd" clip-rule="evenodd" d="M145.609 37.8369H32.2691L37.9637 58.8097H140.588L145.609 37.8369Z" fill="url(#paint10_linear_2010_2581)"/>
<path fill-rule="evenodd" clip-rule="evenodd" d="M51.4347 111.977H127.423L132.261 91.7405H45.7401L51.4347 111.977Z" fill="url(#paint11_linear_2010_2581)"/>
<path d="M69.8654 119.827C69.8654 123.445 66.9263 126.388 63.3136 126.388C59.701 126.388 56.7618 123.445 56.7618 119.827C56.7618 116.209 59.701 113.265 63.3136 113.265C66.9263 113.265 69.8654 116.209 69.8654 119.827Z" fill="#7B4C5A"/>
<path d="M65.518 119.827C65.518 121.053 64.5383 122.034 63.3136 122.034C62.089 122.034 61.1093 121.053 61.1093 119.827C61.1093 118.6 62.089 117.619 63.3136 117.619C64.5383 117.619 65.518 118.6 65.518 119.827Z" fill="#FEFEFE"/>
<path d="M123.015 119.827C123.015 123.445 120.075 126.388 116.463 126.388C112.85 126.388 109.911 123.445 109.911 119.827C109.911 116.209 112.85 113.265 116.463 113.265C120.075 113.265 123.015 116.209 123.015 119.827Z" fill="#7B4C5A"/>
<path d="M118.667 119.827C118.667 121.053 117.687 122.034 116.463 122.034C115.238 122.034 114.258 121.053 114.258 119.827C114.258 118.6 115.238 117.619 116.463 117.619C117.626 117.619 118.667 118.6 118.667 119.827Z" fill="#FEFEFE"/>
<path fill-rule="evenodd" clip-rule="evenodd" d="M42.801 91.6792H3.8576L43.5358 94.7454L42.801 91.6792Z" fill="url(#paint12_linear_2010_2581)"/>
<path fill-rule="evenodd" clip-rule="evenodd" d="M47.0872 109.218H10.9605L47.7608 111.977L47.0872 109.218Z" fill="url(#paint13_linear_2010_2581)"/>
<path fill-rule="evenodd" clip-rule="evenodd" d="M15.3692 100.632L45.5564 103.147L44.9441 100.448L15.3692 100.632Z" fill="url(#paint14_linear_2010_2581)"/>
<path d="M114.197 20.6662C114.075 21.2794 112.544 21.4634 110.768 21.0954C108.993 20.7275 107.707 19.9303 107.829 19.317C107.952 18.7038 109.482 18.5198 111.258 18.8878C113.034 19.2557 114.381 20.0529 114.197 20.6662Z" fill="#ECB037"/>
<path d="M113.218 27.1664C113.095 27.7796 111.564 27.9636 109.789 27.5957C108.013 27.2277 106.727 26.4305 106.849 25.8173C106.972 25.204 108.503 25.0201 110.278 25.388C112.054 25.7559 113.34 26.5532 113.218 27.1664Z" fill="#ECB037"/>
<path d="M8.75614 183.481H5.57209V186.608H3.18405V183.481H0V181.212H3.18405V178.084H5.57209V181.212H8.75614V183.481Z" fill="#007B3E"/>
<path d="M21.4311 175.876V177.839L16.655 188.816H13.4098L18.0634 178.329H13.7771V180.414H11.0829V175.876H21.4311Z" fill="#007B3E"/>
<path d="M36.188 181.212C36.6166 180.844 36.8003 180.414 36.8003 179.801C36.8003 179.188 36.6166 178.759 36.188 178.391C35.7593 178.023 35.2695 177.839 34.5347 177.839C33.9224 177.839 33.3713 178.023 33.0039 178.329C32.5753 178.697 32.3916 179.127 32.3916 179.74C32.3916 180.353 32.5753 180.782 33.0039 181.15C33.4325 181.518 33.9224 181.702 34.5959 181.702C35.2083 181.764 35.7593 181.58 36.188 181.212ZM38.576 177.287C39.6169 178.391 40.1068 179.985 40.1068 182.07C40.1068 183.542 39.8619 184.768 39.3108 185.811C38.7597 186.853 37.9637 187.651 36.984 188.203C36.0043 188.754 34.8409 189 33.555 189C32.8814 189 32.2079 188.938 31.5956 188.754C30.9833 188.57 30.4322 188.387 30.0036 188.08L31.1057 185.872C31.718 186.302 32.5141 186.547 33.4938 186.547C34.5959 186.547 35.4532 186.24 36.0655 185.566C36.6778 184.891 37.0452 183.971 37.1064 182.745C36.3104 183.542 35.2695 183.91 33.9224 183.91C33.1264 183.91 32.3304 183.726 31.6568 183.419C30.9833 183.113 30.4322 182.622 30.0648 182.009C29.6974 181.396 29.4525 180.721 29.4525 179.924C29.4525 179.065 29.6974 178.329 30.126 177.655C30.5546 176.98 31.167 176.49 31.9017 176.122C32.6365 175.754 33.4938 175.57 34.351 175.57C36.188 175.631 37.5963 176.183 38.576 177.287Z" fill="#007B3E"/>
<path d="M52.5369 175.876V177.839L47.6995 188.816H44.4543L49.1079 178.329H44.8217V180.414H42.1887V175.876H52.5369Z" fill="#007B3E"/>
<path d="M58.3539 178.268C57.9865 178.575 57.8028 178.943 57.8028 179.434C57.8028 179.924 57.9865 180.292 58.3539 180.599C58.7212 180.905 59.2111 181.028 59.8234 181.028C60.4357 181.028 60.9256 180.905 61.293 180.599C61.6604 180.292 61.8441 179.924 61.8441 179.434C61.8441 178.943 61.6604 178.514 61.293 178.268C60.9256 177.962 60.4357 177.839 59.8234 177.839C59.2111 177.839 58.7212 178.023 58.3539 178.268ZM61.5991 186.302C62.0278 185.995 62.2727 185.505 62.2727 184.953C62.2727 184.401 62.0278 183.91 61.5991 183.604C61.1705 183.297 60.5582 183.113 59.8234 183.113C59.0886 183.113 58.4763 183.297 58.0477 183.604C57.6191 183.91 57.3741 184.401 57.3741 184.953C57.3741 185.505 57.6191 185.995 58.0477 186.302C58.4763 186.609 59.0886 186.792 59.8234 186.792C60.5582 186.792 61.1093 186.67 61.5991 186.302ZM64.722 183.236C65.0893 183.726 65.2118 184.34 65.2118 185.014C65.2118 185.811 64.9669 186.486 64.5383 187.099C64.1096 187.712 63.4361 188.142 62.6401 188.51C61.8441 188.816 60.8644 189 59.7622 189C58.66 189 57.7415 188.816 56.9455 188.51C56.1495 188.203 55.476 187.712 55.0473 187.099C54.6187 186.486 54.3738 185.811 54.3738 185.014C54.3738 184.34 54.5575 183.726 54.8636 183.236C55.231 182.745 55.6597 182.316 56.3332 182.009C55.8434 181.703 55.476 181.335 55.231 180.905C54.9861 180.476 54.8636 179.924 54.8636 179.372C54.8636 178.636 55.0473 177.962 55.476 177.41C55.9046 176.858 56.4557 176.429 57.2517 176.122C57.9865 175.816 58.8437 175.693 59.8234 175.693C60.8031 175.693 61.6604 175.816 62.4564 176.122C63.1912 176.429 63.8035 176.858 64.2321 177.41C64.6607 177.962 64.8444 178.636 64.8444 179.372C64.8444 179.924 64.722 180.476 64.477 180.905C64.2321 181.335 63.8647 181.703 63.3749 182.009C63.9259 182.316 64.4158 182.745 64.722 183.236Z" fill="#007B3E"/>
<path d="M83.765 175.876V177.839L78.989 188.816H75.7437L80.3361 178.329H76.1111V180.414H73.4169V175.876H83.765Z" fill="#007B3E"/>
<path d="M96.1339 175.876V177.839L91.2966 188.816H88.0513L92.7049 178.329H88.4187V180.414H85.7857V175.876H96.1339Z" fill="#007B3E"/>
<path d="M108.441 175.876V177.839L103.665 188.816H100.42L105.074 178.329H100.787V180.414H98.0933V175.876H108.441Z" fill="#007B3E"/>
<path d="M123.198 181.212C123.627 180.844 123.811 180.414 123.811 179.801C123.811 179.188 123.627 178.759 123.198 178.391C122.77 178.023 122.28 177.839 121.545 177.839C120.933 177.839 120.382 178.023 120.014 178.329C119.586 178.697 119.402 179.127 119.402 179.74C119.402 180.353 119.586 180.782 120.014 181.15C120.443 181.518 120.933 181.702 121.606 181.702C122.219 181.764 122.77 181.58 123.198 181.212ZM125.586 177.287C126.627 178.391 127.117 179.985 127.117 182.07C127.117 183.542 126.872 184.768 126.321 185.811C125.77 186.853 124.974 187.651 123.994 188.203C123.015 188.754 121.851 189 120.565 189C119.892 189 119.218 188.938 118.606 188.754C117.994 188.57 117.443 188.387 117.014 188.08L118.116 185.872C118.728 186.302 119.524 186.547 120.504 186.547C121.606 186.547 122.464 186.24 123.076 185.566C123.688 184.891 124.056 183.971 124.117 182.745C123.321 183.542 122.28 183.91 120.933 183.91C120.137 183.91 119.341 183.726 118.667 183.419C117.994 183.113 117.443 182.622 117.075 182.009C116.708 181.396 116.463 180.721 116.463 179.924C116.463 179.065 116.708 178.329 117.136 177.655C117.565 176.98 118.177 176.49 118.912 176.122C119.647 175.754 120.504 175.57 121.361 175.57C123.198 175.631 124.607 176.183 125.586 177.287Z" fill="#007B3E"/>
<path d="M135.873 181.212C136.302 180.844 136.486 180.414 136.486 179.801C136.486 179.188 136.302 178.759 135.873 178.391C135.445 178.023 134.955 177.839 134.22 177.839C133.608 177.839 133.057 178.023 132.689 178.329C132.261 178.697 132.077 179.127 132.077 179.74C132.077 180.353 132.261 180.782 132.689 181.15C133.118 181.518 133.608 181.702 134.281 181.702C134.894 181.764 135.445 181.58 135.873 181.212ZM138.261 177.287C139.302 178.391 139.792 179.985 139.792 182.07C139.792 183.542 139.547 184.768 138.996 185.811C138.445 186.853 137.649 187.651 136.669 188.203C135.69 188.754 134.526 189 133.24 189C132.567 189 131.893 188.938 131.281 188.754C130.669 188.57 130.117 188.387 129.689 188.08L130.791 185.872C131.403 186.302 132.199 186.547 133.179 186.547C134.281 186.547 135.138 186.24 135.751 185.566C136.363 184.891 136.731 183.971 136.792 182.745C135.996 183.542 134.955 183.91 133.608 183.91C132.812 183.91 132.016 183.726 131.342 183.419C130.669 183.113 130.117 182.622 129.75 182.009C129.383 181.396 129.138 180.721 129.138 179.924C129.138 179.065 129.383 178.329 129.811 177.655C130.24 176.98 130.852 176.49 131.587 176.122C132.322 175.754 133.179 175.57 134.036 175.57C135.812 175.631 137.282 176.183 138.261 177.287Z" fill="#007B3E"/>
<path d="M148.487 181.212C148.916 180.844 149.099 180.414 149.099 179.801C149.099 179.188 148.916 178.759 148.487 178.391C148.058 178.023 147.569 177.839 146.834 177.839C146.221 177.839 145.67 178.023 145.303 178.329C144.874 178.697 144.691 179.127 144.691 179.74C144.691 180.353 144.874 180.782 145.303 181.15C145.732 181.518 146.221 181.702 146.895 181.702C147.569 181.764 148.12 181.58 148.487 181.212ZM150.936 177.287C151.977 178.391 152.467 179.985 152.467 182.07C152.467 183.542 152.222 184.768 151.671 185.811C151.12 186.853 150.324 187.651 149.344 188.203C148.365 188.754 147.201 189 145.915 189C145.242 189 144.568 188.938 143.956 188.754C143.344 188.57 142.792 188.387 142.364 188.08L143.466 185.872C144.078 186.302 144.874 186.547 145.854 186.547C146.956 186.547 147.813 186.24 148.426 185.566C149.038 184.891 149.405 183.971 149.467 182.745C148.671 183.542 147.63 183.91 146.283 183.91C145.487 183.91 144.691 183.726 144.017 183.419C143.344 183.113 142.792 182.622 142.425 182.009C142.058 181.396 141.813 180.721 141.813 179.924C141.813 179.065 142.058 178.329 142.486 177.655C142.915 176.98 143.527 176.49 144.262 176.122C144.997 175.754 145.854 175.57 146.711 175.57C148.487 175.631 149.895 176.183 150.936 177.287Z" fill="#007B3E"/>
<path d="M168.326 185.443C168.755 184.769 169 183.726 169 182.316C169 180.905 168.755 179.863 168.326 179.188C167.897 178.514 167.285 178.146 166.489 178.146C165.693 178.146 165.081 178.514 164.652 179.188C164.224 179.863 163.979 180.905 163.979 182.316C163.979 183.726 164.224 184.769 164.652 185.443C165.081 186.118 165.693 186.486 166.489 186.486C167.285 186.486 167.897 186.118 168.326 185.443ZM163.611 188.203C162.754 187.651 162.142 186.915 161.652 185.934C161.162 184.953 160.917 183.726 160.917 182.316C160.917 180.905 161.162 179.74 161.652 178.698C162.142 177.716 162.754 176.919 163.611 176.429C164.469 175.877 165.387 175.631 166.489 175.631C167.53 175.631 168.51 175.877 169.367 176.429C170.224 176.98 170.837 177.716 171.326 178.698C171.816 179.679 172.061 180.905 172.061 182.316C172.061 183.726 171.816 184.891 171.326 185.934C170.837 186.915 170.224 187.712 169.367 188.203C168.51 188.755 167.591 189 166.489 189C165.387 189 164.469 188.755 163.611 188.203Z" fill="#007B3E"/>
</g>
<defs>
<linearGradient id="paint0_linear_2010_2581" x1="190.34" y1="150.624" x2="43.0633" y2="144.15" gradientUnits="userSpaceOnUse">
<stop stop-color="#EFE227"/>
<stop offset="0.7098" stop-color="#02733D"/>
<stop offset="1" stop-color="#008D45"/>
</linearGradient>
<linearGradient id="paint1_linear_2010_2581" x1="190.371" y1="149.918" x2="43.0943" y2="143.444" gradientUnits="userSpaceOnUse">
<stop stop-color="#EFE227"/>
<stop offset="0.7098" stop-color="#02733D"/>
<stop offset="1" stop-color="#008D45"/>
</linearGradient>
<linearGradient id="paint2_linear_2010_2581" x1="190.412" y1="148.994" x2="43.1349" y2="142.52" gradientUnits="userSpaceOnUse">
<stop stop-color="#EFE227"/>
<stop offset="0.7098" stop-color="#02733D"/>
<stop offset="1" stop-color="#008D45"/>
</linearGradient>
<linearGradient id="paint3_linear_2010_2581" x1="190.452" y1="148.076" x2="43.1754" y2="141.602" gradientUnits="userSpaceOnUse">
<stop stop-color="#EFE227"/>
<stop offset="0.7098" stop-color="#02733D"/>
<stop offset="1" stop-color="#008D45"/>
</linearGradient>
<linearGradient id="paint4_linear_2010_2581" x1="190.484" y1="147.393" x2="43.2048" y2="140.919" gradientUnits="userSpaceOnUse">
<stop stop-color="#EFE227"/>
<stop offset="0.7098" stop-color="#02733D"/>
<stop offset="1" stop-color="#008D45"/>
</linearGradient>
<linearGradient id="paint5_linear_2010_2581" x1="185.223" y1="145.389" x2="37.9461" y2="138.915" gradientUnits="userSpaceOnUse">
<stop stop-color="#EFE227"/>
<stop offset="0.7098" stop-color="#02733D"/>
<stop offset="1" stop-color="#008D45"/>
</linearGradient>
<linearGradient id="paint6_linear_2010_2581" x1="185.265" y1="144.439" x2="37.9879" y2="137.965" gradientUnits="userSpaceOnUse">
<stop stop-color="#EFE227"/>
<stop offset="0.7098" stop-color="#02733D"/>
<stop offset="1" stop-color="#008D45"/>
</linearGradient>
<linearGradient id="paint7_linear_2010_2581" x1="185.297" y1="143.706" x2="38.02" y2="137.232" gradientUnits="userSpaceOnUse">
<stop stop-color="#EFE227"/>
<stop offset="0.7098" stop-color="#02733D"/>
<stop offset="1" stop-color="#008D45"/>
</linearGradient>
<linearGradient id="paint8_linear_2010_2581" x1="159.493" y1="145.069" x2="62.0211" y2="140.784" gradientUnits="userSpaceOnUse">
<stop stop-color="#EFE227"/>
<stop offset="0.7098" stop-color="#02733D"/>
<stop offset="1" stop-color="#008D45"/>
</linearGradient>
<linearGradient id="paint9_linear_2010_2581" x1="37.9527" y1="71.5166" x2="132.268" y2="71.5166" gradientUnits="userSpaceOnUse">
<stop stop-color="#00773F"/>
<stop offset="0.502" stop-color="#9EC26E"/>
<stop offset="1" stop-color="#007D42"/>
</linearGradient>
<linearGradient id="paint10_linear_2010_2581" x1="32.2663" y1="48.3187" x2="145.584" y2="48.3187" gradientUnits="userSpaceOnUse">
<stop stop-color="#EFE227"/>
<stop offset="0.7098" stop-color="#02733D"/>
<stop offset="1" stop-color="#008D45"/>
</linearGradient>
<linearGradient id="paint11_linear_2010_2581" x1="45.7194" y1="101.868" x2="132.268" y2="101.868" gradientUnits="userSpaceOnUse">
<stop stop-color="#007F42"/>
<stop offset="0.7098" stop-color="#187C3E"/>
<stop offset="1" stop-color="#99AE2E"/>
</linearGradient>
<linearGradient id="paint12_linear_2010_2581" x1="50.7299" y1="92.7878" x2="2.69253" y2="93.5344" gradientUnits="userSpaceOnUse">
<stop stop-color="#EFE227"/>
<stop offset="0.7098" stop-color="#02733D"/>
<stop offset="1" stop-color="#008D45"/>
</linearGradient>
<linearGradient id="paint13_linear_2010_2581" x1="43.0802" y1="110.396" x2="-25.2498" y2="111.458" gradientUnits="userSpaceOnUse">
<stop stop-color="#EFE227"/>
<stop offset="0.7098" stop-color="#02733D"/>
<stop offset="1" stop-color="#008D45"/>
</linearGradient>
<linearGradient id="paint14_linear_2010_2581" x1="51.2561" y1="101.574" x2="-4.81995" y2="102.446" gradientUnits="userSpaceOnUse">
<stop stop-color="#EFE227"/>
<stop offset="0.7098" stop-color="#02733D"/>
<stop offset="1" stop-color="#008D45"/>
</linearGradient>
<clipPath id="clip0_2010_2581">
<rect width="172" height="189" fill="white"/>
</clipPath>
</defs>
</svg>
