<svg width="236" height="59" viewBox="0 0 236 59" fill="none" xmlns="http://www.w3.org/2000/svg">
<path d="M75.9297 49.4464C75.7889 50.0803 75.5777 50.503 75.2961 50.7848H79.5902V45.5015H76.2817L76.2113 47.0513C76.1409 48.0375 76.0705 48.8124 75.9297 49.4464ZM81.6317 50.7848V53.2503H80.7166V51.5596H74.5218V53.2503H73.6067V50.7848H74.029C74.5218 50.7848 74.8034 50.4325 74.9442 49.7281C75.085 49.0941 75.2257 48.1784 75.2961 46.9808L75.3665 44.6562H80.435V50.7848H81.6317Z" fill="#00934D"/>
<path d="M88.2488 50.503C88.6712 50.2917 88.9528 49.9394 89.164 49.5168C89.3751 49.0941 89.5159 48.601 89.5159 48.1079C89.5159 47.6148 89.3751 47.1217 89.164 46.6991C88.9528 46.2764 88.6712 45.9946 88.2488 45.7128C87.8265 45.5015 87.4041 45.3606 86.9113 45.3606C86.4186 45.3606 85.9962 45.5015 85.5738 45.7128C85.1514 45.9242 84.8699 46.2764 84.6587 46.6991C84.4475 47.1217 84.3067 47.6148 84.3067 48.1079C84.3067 48.601 84.4475 49.0941 84.6587 49.5168C84.8699 49.9394 85.2218 50.2212 85.5738 50.503C85.9962 50.7143 86.4186 50.8552 86.9113 50.8552C87.4745 50.8552 87.8969 50.7143 88.2488 50.503ZM85.1514 51.2074C84.5883 50.9256 84.1659 50.503 83.8843 49.9394C83.6028 49.3759 83.3916 48.8124 83.3916 48.1079C83.3916 47.4035 83.5324 46.8399 83.8843 46.2764C84.1659 45.7129 84.5883 45.2902 85.1514 45.0084C85.7146 44.7266 86.2778 44.5858 86.9817 44.5858C87.6153 44.5858 88.2488 44.7266 88.812 45.0084C89.3751 45.2902 89.7975 45.7129 90.0791 46.2764C90.3607 46.8399 90.5015 47.4035 90.5015 48.1079C90.5015 48.8124 90.3607 49.3759 90.0791 49.9394C89.7975 50.503 89.3751 50.9256 88.812 51.2074C88.2488 51.4892 87.6857 51.6301 86.9817 51.6301C86.2778 51.6301 85.7146 51.4892 85.1514 51.2074Z" fill="#00934D"/>
<path d="M94.162 51.2074C93.5989 50.9256 93.1765 50.503 92.8949 49.9394C92.6133 49.3759 92.4021 48.8124 92.4021 48.1079C92.4021 47.4035 92.5429 46.8399 92.8949 46.2764C93.1765 45.7129 93.5989 45.2902 94.162 45.0084C94.7252 44.7266 95.2883 44.5858 95.9923 44.5858C96.5554 44.5858 97.1186 44.7267 97.6114 44.938C98.1041 45.1493 98.4561 45.5015 98.7377 45.9242L98.0337 46.4173C97.8226 46.0651 97.541 45.7833 97.189 45.6424C96.837 45.5015 96.4851 45.3606 96.0627 45.3606C95.5699 45.3606 95.1475 45.5015 94.7252 45.7128C94.3028 45.9242 94.0212 46.2764 93.81 46.6991C93.5989 47.1217 93.4581 47.6148 93.4581 48.1079C93.4581 48.6715 93.5989 49.0941 93.81 49.5168C94.0212 49.9394 94.3732 50.2212 94.7252 50.4325C95.1475 50.6439 95.5699 50.7848 96.0627 50.7848C96.4851 50.7848 96.837 50.7143 97.189 50.503C97.541 50.3621 97.8226 50.0803 98.0337 49.7281L98.7377 50.2212C98.4561 50.6439 98.1041 50.9961 97.6114 51.2074C97.1186 51.4187 96.6258 51.5596 95.9923 51.5596C95.3587 51.6301 94.7252 51.4892 94.162 51.2074Z" fill="#00934D"/>
<path d="M105.918 45.5015H103.313V51.5596H102.398V45.5015H99.7232V44.6562H105.918V45.5015Z" fill="#00934D"/>
<path d="M111.338 50.5734C111.69 50.3621 111.972 50.0099 112.183 49.5168V48.3897H110.001C108.804 48.3897 108.241 48.8123 108.241 49.6577C108.241 50.0803 108.382 50.3621 108.734 50.6439C109.015 50.8552 109.438 50.9961 110.001 50.9961C110.494 50.9256 110.986 50.7848 111.338 50.5734ZM112.394 45.2902C112.887 45.7129 113.098 46.4173 113.098 47.2626V51.5596H112.183V50.503C111.972 50.8552 111.69 51.137 111.268 51.3483C110.846 51.5596 110.353 51.6301 109.79 51.6301C109.015 51.6301 108.382 51.4187 107.959 51.0665C107.537 50.7143 107.255 50.2212 107.255 49.5872C107.255 49.0237 107.467 48.5306 107.889 48.1784C108.311 47.8261 109.015 47.6148 109.93 47.6148H112.183V47.1922C112.183 46.6286 112.042 46.1355 111.69 45.8537C111.338 45.572 110.846 45.3606 110.212 45.3606C109.79 45.3606 109.367 45.4311 108.945 45.572C108.523 45.7129 108.171 45.9242 107.889 46.206L107.467 45.5015C107.819 45.2197 108.241 44.938 108.734 44.7971C109.227 44.6562 109.719 44.5858 110.282 44.5858C111.198 44.5858 111.902 44.8675 112.394 45.2902Z" fill="#00934D"/>
<path d="M120.701 50.5734C120.982 50.3621 121.123 50.0803 121.123 49.6576C121.123 49.235 120.982 48.9532 120.701 48.7419C120.419 48.5305 119.997 48.4601 119.434 48.4601H117.111V50.8552H119.293C119.927 50.8552 120.419 50.7847 120.701 50.5734ZM117.181 47.7557H119.293C119.856 47.7557 120.208 47.6852 120.49 47.4739C120.771 47.2626 120.912 46.9808 120.912 46.5581C120.912 46.2059 120.771 45.8537 120.49 45.7128C120.208 45.5015 119.786 45.431 119.293 45.431H117.181V47.7557ZM122.038 49.7281C122.038 50.3621 121.827 50.7847 121.334 51.1369C120.912 51.4892 120.208 51.63 119.363 51.63H116.196V44.7266H119.223C119.997 44.7266 120.63 44.8675 121.053 45.2197C121.475 45.5015 121.757 45.9946 121.757 46.5581C121.757 46.9103 121.686 47.2626 121.475 47.5443C121.264 47.8261 120.982 48.0374 120.63 48.1783C121.616 48.2488 122.038 48.8123 122.038 49.7281Z" fill="#00934D"/>
<path d="M127.388 48.5306H125.84V51.5596H124.925V44.6562H125.84V47.6853H127.459L129.852 44.6562H130.908L128.163 48.0375L131.049 51.5596H129.993L127.388 48.5306Z" fill="#00934D"/>
<path d="M136.469 50.5734C136.821 50.3621 137.103 50.0099 137.314 49.5168V48.3897H135.132C133.935 48.3897 133.372 48.8123 133.372 49.6577C133.372 50.0803 133.513 50.3621 133.865 50.6439C134.146 50.8552 134.569 50.9961 135.132 50.9961C135.625 50.9256 136.117 50.7848 136.469 50.5734ZM137.525 45.2902C138.018 45.7129 138.229 46.4173 138.229 47.2626V51.5596H137.314V50.503C137.103 50.8552 136.821 51.137 136.399 51.3483C135.977 51.5596 135.484 51.6301 134.921 51.6301C134.146 51.6301 133.513 51.4187 133.09 51.0665C132.668 50.7143 132.386 50.2212 132.386 49.5872C132.386 49.0237 132.598 48.5306 133.02 48.1784C133.442 47.8261 134.146 47.6148 135.062 47.6148H137.244V47.1922C137.244 46.6286 137.103 46.1355 136.751 45.8537C136.399 45.572 135.906 45.3606 135.273 45.3606C134.85 45.3606 134.428 45.4311 134.006 45.572C133.583 45.7129 133.231 45.9242 132.95 46.206L132.527 45.5015C132.879 45.2197 133.302 44.938 133.794 44.7971C134.287 44.6562 134.78 44.5858 135.343 44.5858C136.329 44.5858 137.033 44.8675 137.525 45.2902Z" fill="#00934D"/>
<path d="M149.915 50.5734C150.196 50.3621 150.337 50.0803 150.337 49.6576C150.337 49.235 150.196 48.9532 149.915 48.7419C149.633 48.5305 149.211 48.4601 148.648 48.4601H146.325V50.8552H148.507C149.211 50.8552 149.633 50.7847 149.915 50.5734ZM146.395 47.7557H148.507C149.07 47.7557 149.422 47.6852 149.704 47.4739C149.985 47.2626 150.126 46.9808 150.126 46.5581C150.126 46.2059 149.985 45.8537 149.704 45.7128C149.422 45.5015 149 45.431 148.507 45.431H146.395V47.7557ZM151.323 49.7281C151.323 50.3621 151.112 50.7847 150.619 51.1369C150.196 51.4892 149.492 51.63 148.648 51.63H145.48V44.7266H148.507C149.281 44.7266 149.915 44.8675 150.337 45.2197C150.76 45.5015 151.041 45.9946 151.041 46.5581C151.041 46.9103 150.971 47.2626 150.76 47.5443C150.548 47.8261 150.267 48.0374 149.915 48.1783C150.83 48.2488 151.323 48.8123 151.323 49.7281Z" fill="#00934D"/>
<path d="M156.673 48.5306H155.124V51.5596H154.139V44.6562H155.124V47.6853H156.673L159.137 44.6562H160.122L157.377 48.0375L160.333 51.5596H159.207L156.673 48.5306Z" fill="#00934D"/>
<path d="M167.936 44.6562L164.487 52.4049C164.205 53.0389 163.853 53.532 163.501 53.8138C163.149 54.0956 162.656 54.2365 162.164 54.2365C161.812 54.2365 161.53 54.166 161.248 54.0956C160.967 54.0251 160.685 53.8138 160.474 53.6025L160.896 52.898C161.248 53.2503 161.671 53.3912 162.164 53.3912C162.445 53.3912 162.727 53.3207 162.938 53.1094C163.149 52.9685 163.36 52.6163 163.571 52.1936L163.853 51.4892L160.756 44.5858H161.741L164.346 50.503L166.95 44.5858L167.936 44.6562Z" fill="#00934D"/>
<path d="M170.892 51.2074C170.329 50.9256 169.907 50.503 169.625 49.9394C169.344 49.3759 169.133 48.8124 169.133 48.1079C169.133 47.4035 169.273 46.8399 169.625 46.2764C169.907 45.7129 170.329 45.2902 170.892 45.0084C171.456 44.7266 172.019 44.5858 172.723 44.5858C173.286 44.5858 173.849 44.7267 174.342 44.938C174.835 45.1493 175.187 45.5015 175.468 45.9242L174.764 46.4173C174.553 46.0651 174.271 45.7833 173.919 45.6424C173.568 45.5015 173.216 45.3606 172.793 45.3606C172.3 45.3606 171.878 45.5015 171.456 45.7128C171.033 45.9242 170.752 46.2764 170.541 46.6991C170.329 47.1217 170.189 47.6148 170.189 48.1079C170.189 48.6715 170.329 49.0941 170.541 49.5168C170.752 49.9394 171.104 50.2212 171.456 50.4325C171.878 50.6439 172.3 50.7848 172.793 50.7848C173.216 50.7848 173.568 50.7143 173.919 50.503C174.271 50.3621 174.553 50.0803 174.764 49.7281L175.468 50.2212C175.187 50.6439 174.835 50.9961 174.342 51.2074C173.849 51.4187 173.356 51.5596 172.723 51.5596C172.089 51.6301 171.456 51.4892 170.892 51.2074Z" fill="#00934D"/>
<path d="M177.932 44.6562H178.847V47.7557H183.212V44.6562H184.127V51.5596H183.212V48.5306H178.847V51.5596H177.932V44.6562Z" fill="#00934D"/>
<path d="M191.659 50.503C192.081 50.2917 192.363 49.9394 192.574 49.5168C192.785 49.0941 192.926 48.601 192.926 48.1079C192.926 47.6148 192.785 47.1217 192.574 46.6991C192.363 46.2764 192.081 45.9946 191.659 45.7128C191.237 45.5015 190.814 45.3606 190.322 45.3606C189.829 45.3606 189.406 45.5015 188.984 45.7128C188.562 45.9242 188.28 46.2764 188.069 46.6991C187.858 47.1217 187.717 47.6148 187.717 48.1079C187.717 48.601 187.858 49.0941 188.069 49.5168C188.28 49.9394 188.632 50.2212 188.984 50.503C189.406 50.7143 189.829 50.8552 190.322 50.8552C190.814 50.8552 191.237 50.7143 191.659 50.503ZM188.491 51.2074C187.928 50.9256 187.506 50.503 187.224 49.9394C186.943 49.3759 186.731 48.8124 186.731 48.1079C186.731 47.4035 186.872 46.8399 187.224 46.2764C187.506 45.7129 187.928 45.2902 188.491 45.0084C189.054 44.7266 189.618 44.5858 190.322 44.5858C190.955 44.5858 191.589 44.7266 192.152 45.0084C192.715 45.2902 193.137 45.7129 193.419 46.2764C193.7 46.8399 193.841 47.4035 193.841 48.1079C193.841 48.8124 193.7 49.3759 193.419 49.9394C193.137 50.503 192.715 50.9256 192.152 51.2074C191.589 51.4892 191.025 51.6301 190.322 51.6301C189.618 51.6301 189.054 51.4892 188.491 51.2074Z" fill="#00934D"/>
<path d="M198.206 43.2473C197.854 42.9655 197.643 42.5429 197.643 41.9793H198.347C198.347 42.3316 198.487 42.6133 198.699 42.8247C198.91 43.036 199.262 43.1064 199.614 43.1064C199.966 43.1064 200.318 43.036 200.529 42.8247C200.74 42.6133 200.881 42.3316 200.881 41.9793H201.585C201.585 42.5429 201.374 42.9655 201.022 43.2473C200.67 43.5291 200.177 43.67 199.614 43.67C199.051 43.67 198.558 43.5291 198.206 43.2473ZM196.516 44.6562H197.431V50.1507L202.077 44.6562H202.922V51.5596H202.007V46.065L197.431 51.5596H196.587L196.516 44.6562Z" fill="#00934D"/>
<path d="M211.299 46.0651C210.877 46.4877 210.595 47.0513 210.525 47.7557H215.453C215.382 47.0513 215.101 46.4877 214.678 46.0651C214.256 45.6424 213.693 45.4311 212.989 45.4311C212.355 45.4311 211.792 45.6424 211.299 46.0651ZM216.368 48.3897H210.595C210.666 49.0941 210.947 49.6577 211.44 50.1508C211.933 50.5734 212.566 50.7848 213.341 50.7848C213.763 50.7848 214.185 50.7143 214.537 50.5734C214.889 50.4326 215.241 50.2212 215.453 49.869L215.945 50.503C215.664 50.8552 215.241 51.137 214.819 51.3483C214.326 51.5596 213.833 51.6301 213.27 51.6301C212.566 51.6301 211.933 51.4892 211.37 51.2074C210.807 50.9256 210.384 50.503 210.103 49.9394C209.821 49.3759 209.61 48.8124 209.61 48.1079C209.61 47.4035 209.751 46.8399 210.032 46.2764C210.314 45.7129 210.736 45.2902 211.229 45.0084C211.722 44.7266 212.285 44.5858 212.989 44.5858C213.622 44.5858 214.185 44.7266 214.678 45.0084C215.171 45.2902 215.593 45.7129 215.875 46.2764C216.157 46.8399 216.297 47.4035 216.297 48.1079L216.368 48.3897Z" fill="#00934D"/>
<path d="M220.028 49.4464C219.887 50.0803 219.676 50.503 219.395 50.7848H223.689V45.5015H220.38L220.31 47.0513C220.239 48.0375 220.169 48.8124 220.028 49.4464ZM225.66 50.7848V53.2503H224.815V51.5596H218.62V53.2503H217.705V50.7848H218.128C218.62 50.7848 218.902 50.4325 219.043 49.7281C219.184 49.0941 219.324 48.1784 219.395 46.9808L219.465 44.6562H224.534V50.7848H225.66Z" fill="#00934D"/>
<path d="M234.882 44.6562H235.797V51.5596H234.882V44.6562ZM232.277 50.503C232.629 50.2212 232.77 49.869 232.77 49.3055C232.77 48.8124 232.629 48.3897 232.277 48.1784C231.925 47.967 231.432 47.8261 230.799 47.8261H229.039V50.9257H230.799C231.503 50.9257 231.995 50.7848 232.277 50.503ZM233.051 47.6853C233.474 48.0375 233.755 48.601 233.755 49.3055C233.755 50.0099 233.544 50.5734 233.051 50.9961C232.559 51.4187 231.855 51.5596 230.939 51.5596H228.194V44.6562H229.109V47.0513H231.08C231.925 47.1217 232.559 47.3331 233.051 47.6853Z" fill="#00934D"/>
<path fill-rule="evenodd" clip-rule="evenodd" d="M74.0674 23.9609C74.0674 27.7073 76.9474 28.7448 80.7489 29.3788C82.592 29.667 84.1472 29.7247 84.1472 31.3385C84.1472 33.0677 82.3616 33.644 80.7489 33.644C78.9633 33.644 76.9474 33.01 75.7954 31.9149L73.6067 34.7968C75.3922 36.2954 78.0417 37.2752 80.6913 37.2752C84.4928 37.2752 88.0639 35.2579 88.0639 31.0503C88.0639 27.5921 85.5871 26.4969 80.7489 25.6324C79.3089 25.3442 77.9841 25.1136 77.9841 23.6727C77.9841 22.0012 79.6545 21.4248 81.1521 21.4248C82.8224 21.4248 84.608 22.1165 85.6447 23.2116L87.8335 20.2721C86.0479 18.7158 83.5136 17.7936 81.0945 17.7936C77.5234 17.7936 74.0674 19.8686 74.0674 23.9609Z" fill="url(#paint0_linear_2001_704)"/>
<path fill-rule="evenodd" clip-rule="evenodd" d="M106.841 30.5892V18.4276H102.924V30.8198C102.924 33.01 101.024 33.644 99.4684 33.644C97.9132 33.644 96.0125 33.01 96.0125 30.8198V18.4276H92.0958V30.5892C92.0958 35.085 95.6669 37.2752 99.4684 37.2752C103.27 37.2752 106.841 35.085 106.841 30.5892Z" fill="url(#paint1_linear_2001_704)"/>
<path fill-rule="evenodd" clip-rule="evenodd" d="M119.282 18.4276H111.852V36.6988H115.769V30.4163H119.282C122.565 30.4163 125.272 28.6295 125.272 24.422C125.272 20.272 122.508 18.4276 119.282 18.4276ZM115.769 22.0588H119.282C120.377 22.0588 121.356 22.347 121.356 24.422C121.356 26.4969 120.319 26.7275 119.282 26.7275H115.769V22.0588Z" fill="url(#paint2_linear_2001_704)"/>
<path fill-rule="evenodd" clip-rule="evenodd" d="M141.515 36.6412V33.01H133.048V29.3788H140.19V25.69H133.048V22.0588H141.515V18.4276H129.132V36.6412H141.515Z" fill="url(#paint3_linear_2001_704)"/>
<path fill-rule="evenodd" clip-rule="evenodd" d="M153.553 18.4276H146.123V36.6988H150.04V30.4163H151.883L155.627 36.6988H160.062L155.915 30.0705C158.046 29.3788 159.544 27.592 159.544 24.4796C159.544 20.272 156.779 18.4276 153.553 18.4276ZM150.04 22.0588H153.553C154.648 22.0588 155.627 22.347 155.627 24.422C155.627 26.4969 154.59 26.7275 153.553 26.7275H150.04V22.0588Z" fill="url(#paint4_linear_2001_704)"/>
<path fill-rule="evenodd" clip-rule="evenodd" d="M179.357 27.5344C179.357 34.2204 182.928 37.2752 187.709 37.2752C192.49 37.2752 196.061 34.2204 196.061 27.5344C196.061 20.8484 192.49 17.7936 187.709 17.7936C182.928 17.7936 179.357 20.8484 179.357 27.5344ZM183.274 27.5344C183.274 22.9234 185.06 21.4248 187.709 21.4248C190.359 21.4248 192.144 22.8658 192.144 27.5344C192.144 32.2031 190.359 33.644 187.709 33.644C185.06 33.644 183.274 32.1455 183.274 27.5344Z" fill="url(#paint5_linear_2001_704)"/>
<path fill-rule="evenodd" clip-rule="evenodd" d="M199.69 27.5344C199.69 34.2204 203.261 37.2752 208.041 37.2752C212.822 37.2752 216.393 34.2204 216.393 27.5344C216.393 20.8484 212.822 17.7936 208.041 17.7936C203.261 17.7936 199.69 20.8484 199.69 27.5344ZM203.606 27.5344C203.606 22.9234 205.392 21.4248 208.041 21.4248C210.691 21.4248 212.477 22.8658 212.477 27.5344C212.477 32.2031 210.691 33.644 208.041 33.644C205.392 33.644 203.606 32.1455 203.606 27.5344Z" fill="url(#paint6_linear_2001_704)"/>
<path fill-rule="evenodd" clip-rule="evenodd" d="M226.3 18.4276H220.828V36.6988H226.3C231.484 36.6988 235.343 33.8169 235.343 27.592C235.343 21.2519 231.484 18.4276 226.3 18.4276ZM224.687 22.0588H226.185C229.41 22.0588 231.426 23.4421 231.426 27.5344C231.426 31.6267 229.41 33.01 226.185 33.01H224.687V22.0588Z" fill="url(#paint7_linear_2001_704)"/>
<path fill-rule="evenodd" clip-rule="evenodd" d="M176.535 18.4276H164.151V36.6412H168.068V29.3788H175.21V25.69H168.068V22.0588H176.535V18.4276Z" fill="url(#paint8_linear_2001_704)"/>
<path d="M38.5946 16.3709L34.3318 6.55099L37.7649 6.2647L37.7363 5.60622L34.0457 5.89252L32.2146 1.71263L31.5566 2.77192L32.9013 5.97841L31.2705 6.12155L31.3277 6.78003L33.1874 6.63688L33.6451 7.7248L29.6398 8.03972L30.8128 16.514H35.3045L34.8467 10.6164L37.3358 16.514L38.5946 16.3709Z" fill="#7DC1D0"/>
<path d="M48.7797 0.567467C48.1217 1.0828 45.3465 -0.864001 47.1203 3.97436C47.8356 4.03162 52.1843 4.48969 52.6134 4.37517C53.8722 4.00299 54.0153 0.911019 52.6706 0.796502C51.6693 0.710614 51.984 2.08482 51.6979 2.2566C51.4404 2.39975 51.1257 2.2566 50.9826 2.02756C50.6966 1.65538 51.0113 1.0828 50.8396 0.653355C50.5821 -0.0337499 49.9241 -0.348673 48.7797 0.567467Z" fill="#9DC147"/>
<path d="M49.0658 4.46105C48.9514 4.4038 48.8083 4.37517 48.7225 4.34654C48.8083 3.71669 48.6367 3.25862 48.3506 2.91507C48.3792 2.48563 48.322 2.02756 47.8356 1.79852C47.3206 1.56949 47.2062 1.82715 47.0059 2.11345C46.4051 2.08482 46.4051 1.25457 46.2621 0.825126C46.1476 0.510203 46.0046 0.367056 45.6612 0.338427C45.2035 0.309797 45.0604 0.596091 44.7457 0.853755C44.2021 1.2832 43.258 0.424315 42.8575 1.14005C42.4283 1.91304 42.9719 3.22999 43.2294 3.94573L43.7158 3.97436C43.6013 4.83324 43.63 5.74938 43.916 6.52237C44.9746 6.52237 49.6666 6.57963 49.8097 6.49374C50.0958 6.37922 50.6394 5.00501 49.0658 4.46105Z" fill="#84A148"/>
<path d="M45.3465 16.514L47.0345 6.60827C47.8069 2.14209 53.4145 3.60219 53.4145 3.60219L51.2115 16.514H45.3465Z" fill="#EBC337"/>
<path d="M40.5401 16.514L43.3438 1.79854L43.6872 1.8558C47.9786 2.74331 47.1776 5.72076 47.0059 6.75142L45.3465 16.4854H40.5401V16.514Z" fill="#ECB037"/>
<path d="M63.3421 10.9885L61.9116 9.04174C61.6541 8.69818 61.3108 8.46915 60.8816 8.38326L56.1896 7.49575C56.0466 7.46712 55.9322 7.55301 55.8749 7.69616L55.1311 10.7309C54.2156 10.8168 53.5575 11.1603 53.4431 11.647L52.3559 16.5713H62.026L63.3421 11.3035C63.4279 11.2176 63.4279 11.1031 63.3421 10.9885Z" fill="#3F4543"/>
<path d="M56.5616 8.15424L57.5629 9.52845C57.849 9.92926 58.2782 10.1869 58.7931 10.2728L62.541 10.9599C62.7413 10.9885 62.8843 10.7881 62.7699 10.6164L61.5683 9.04175C61.368 8.78409 61.0533 8.58368 60.71 8.52642L56.7904 7.81069C56.5902 7.78206 56.4471 7.98246 56.5616 8.15424Z" fill="#FEFEFE"/>
<path d="M58.2496 8.7841L58.7073 9.38531C58.8504 9.55709 59.0506 9.67161 59.2509 9.70024L60.9675 9.98653C61.0533 10.0152 61.1105 9.90064 61.0533 9.84338L60.5097 9.15628C60.4239 9.04176 60.2809 8.95587 60.1092 8.92724L58.3354 8.61232C58.2496 8.64095 58.1923 8.72684 58.2496 8.7841Z" fill="#ED6C76"/>
<path d="M59.6801 12.9067C59.537 13.5652 58.1351 13.8229 56.533 13.4793C54.9308 13.1358 53.7578 12.3341 53.9009 11.6757C54.0439 11.0172 55.4458 10.7595 57.048 11.1031C58.6501 11.418 59.8231 12.2483 59.6801 12.9067Z" fill="#FCFBFD"/>
<path d="M57.9348 12.5346C57.8776 12.7922 57.334 12.8781 56.7332 12.7636C56.1324 12.6205 55.6747 12.3055 55.7319 12.0765C55.7891 11.8188 56.3327 11.7329 56.9335 11.8475C57.5343 11.962 57.9921 12.2769 57.9348 12.5346Z" fill="#FDCD69"/>
<path d="M40.1968 7.23811L39.9679 6.12157L29.1248 6.92319L29.0676 8.09699L34.6179 7.66755L35.3045 16.514H39.7676L39.6246 7.26674L40.1968 7.23811Z" fill="#00949B"/>
<path d="M20.3988 13.1644L19.4833 13.5652L16.1645 5.80663L17.1087 5.40582L20.3988 13.1644Z" fill="#EBC337"/>
<path d="M25.148 12.4773L26.1494 12.6204L27.1793 4.232L26.178 4.11748L25.148 12.4773Z" fill="#EBC337"/>
<path d="M19.8838 13.5079L18.8825 13.6511L17.6808 5.31995L18.6822 5.1768L19.8838 13.5079Z" fill="#ED8D37"/>
<path d="M21.2571 13.3075L20.2557 13.4507L19.0541 5.11954L20.0555 4.97639L21.2571 13.3075Z" fill="#ED8D37"/>
<path d="M22.6303 13.1357L21.629 13.2789L20.4274 4.9191L21.4573 4.77596L22.6303 13.1357Z" fill="#ED8D37"/>
<path d="M24.0036 12.9353L23.0023 13.0785L21.8293 4.71869L22.8306 4.57555L24.0036 12.9353Z" fill="#ED8D37"/>
<path d="M25.3769 12.7349L24.3755 12.8781L23.2025 4.51828L24.2039 4.37514L25.3769 12.7349Z" fill="#ED8D37"/>
<path d="M26.7788 12.5345L25.7774 12.6777L24.5758 4.31792L25.5772 4.17477L26.7788 12.5345Z" fill="#ED8D37"/>
<path d="M25.4627 7.66753L25.5486 8.24012C25.6916 9.15626 25.0336 10.0151 24.1181 10.1583L20.7707 10.645C19.8552 10.7881 18.9969 10.1297 18.8539 9.21352L18.768 8.64093L16.6795 8.92723L18.3389 16.514H28.1807L27.5799 7.38124C27.5512 7.38124 25.4627 7.66753 25.4627 7.66753Z" fill="#DC3B37"/>
<path fill-rule="evenodd" clip-rule="evenodd" d="M15.9357 27.4504L40.1681 42.8244H59.9947L29.0962 23.9576L15.9357 27.4504Z" fill="url(#paint9_linear_2001_704)"/>
<path fill-rule="evenodd" clip-rule="evenodd" d="M66.2317 17.6592H13.2749L15.9357 27.4504H63.8857L66.2317 17.6592Z" fill="url(#paint10_linear_2001_704)"/>
<path fill-rule="evenodd" clip-rule="evenodd" d="M22.2298 52.2721H57.7346L59.9947 42.8244H19.5691L22.2298 52.2721Z" fill="url(#paint11_linear_2001_704)"/>
<path d="M30.8414 55.9367C30.8414 57.6258 29.4681 59 27.7801 59C26.0921 59 24.7189 57.6258 24.7189 55.9367C24.7189 54.2475 26.0921 52.8733 27.7801 52.8733C29.4681 52.8733 30.8414 54.2475 30.8414 55.9367Z" fill="#7B4C5A"/>
<path d="M28.8101 55.9366C28.8101 56.5092 28.3523 56.9673 27.7801 56.9673C27.2079 56.9673 26.7502 56.5092 26.7502 55.9366C26.7502 55.364 27.2079 54.906 27.7801 54.906C28.3523 54.906 28.8101 55.364 28.8101 55.9366Z" fill="#FEFEFE"/>
<path d="M55.6747 55.9367C55.6747 57.6258 54.3014 59 52.6134 59C50.9255 59 49.5522 57.6258 49.5522 55.9367C49.5522 54.2475 50.9255 52.8733 52.6134 52.8733C54.3014 52.8733 55.6747 54.2475 55.6747 55.9367Z" fill="#7B4C5A"/>
<path d="M53.6434 55.9366C53.6434 56.5092 53.1856 56.9673 52.6134 56.9673C52.0412 56.9673 51.5835 56.5092 51.5835 55.9366C51.5835 55.364 52.0412 54.906 52.6134 54.906C53.157 54.906 53.6434 55.364 53.6434 55.9366Z" fill="#FEFEFE"/>
<path fill-rule="evenodd" clip-rule="evenodd" d="M18.1958 42.7958H0L18.5391 44.2272L18.1958 42.7958Z" fill="url(#paint12_linear_2001_704)"/>
<path fill-rule="evenodd" clip-rule="evenodd" d="M20.1985 50.9838H3.31876L20.5132 52.2721L20.1985 50.9838Z" fill="url(#paint13_linear_2001_704)"/>
<path fill-rule="evenodd" clip-rule="evenodd" d="M5.37863 46.9757L19.4833 48.1495L19.1972 46.8898L5.37863 46.9757Z" fill="url(#paint14_linear_2001_704)"/>
<path d="M51.5548 9.64298C51.4976 9.92928 50.7824 10.0152 49.9527 9.84339C49.123 9.67161 48.5222 9.29943 48.5794 9.01314C48.6366 8.72684 49.3519 8.64095 50.1816 8.81273C51.0113 8.98451 51.6407 9.35669 51.5548 9.64298Z" fill="#ECB037"/>
<path d="M51.0971 12.6777C51.0399 12.964 50.3246 13.0498 49.495 12.8781C48.6653 12.7063 48.0645 12.3341 48.1217 12.0478C48.1789 11.7615 48.8942 11.6756 49.7238 11.8474C50.5535 12.0192 51.1543 12.3914 51.0971 12.6777Z" fill="#ECB037"/>
<defs>
<linearGradient id="paint0_linear_2001_704" x1="252.595" y1="35.0968" x2="114.058" y2="29.0017" gradientUnits="userSpaceOnUse">
<stop stop-color="#EFE227"/>
<stop offset="0.7098" stop-color="#02733D"/>
<stop offset="1" stop-color="#008D45"/>
</linearGradient>
<linearGradient id="paint1_linear_2001_704" x1="252.624" y1="34.4332" x2="114.087" y2="28.3382" gradientUnits="userSpaceOnUse">
<stop stop-color="#EFE227"/>
<stop offset="0.7098" stop-color="#02733D"/>
<stop offset="1" stop-color="#008D45"/>
</linearGradient>
<linearGradient id="paint2_linear_2001_704" x1="252.663" y1="33.5652" x2="114.125" y2="27.4702" gradientUnits="userSpaceOnUse">
<stop stop-color="#EFE227"/>
<stop offset="0.7098" stop-color="#02733D"/>
<stop offset="1" stop-color="#008D45"/>
</linearGradient>
<linearGradient id="paint3_linear_2001_704" x1="252.701" y1="32.7022" x2="114.163" y2="26.6072" gradientUnits="userSpaceOnUse">
<stop stop-color="#EFE227"/>
<stop offset="0.7098" stop-color="#02733D"/>
<stop offset="1" stop-color="#008D45"/>
</linearGradient>
<linearGradient id="paint4_linear_2001_704" x1="252.73" y1="32.06" x2="114.191" y2="25.965" gradientUnits="userSpaceOnUse">
<stop stop-color="#EFE227"/>
<stop offset="0.7098" stop-color="#02733D"/>
<stop offset="1" stop-color="#008D45"/>
</linearGradient>
<linearGradient id="paint5_linear_2001_704" x1="247.782" y1="30.1766" x2="109.244" y2="24.0816" gradientUnits="userSpaceOnUse">
<stop stop-color="#EFE227"/>
<stop offset="0.7098" stop-color="#02733D"/>
<stop offset="1" stop-color="#008D45"/>
</linearGradient>
<linearGradient id="paint6_linear_2001_704" x1="247.821" y1="29.2831" x2="109.283" y2="23.1883" gradientUnits="userSpaceOnUse">
<stop stop-color="#EFE227"/>
<stop offset="0.7098" stop-color="#02733D"/>
<stop offset="1" stop-color="#008D45"/>
</linearGradient>
<linearGradient id="paint7_linear_2001_704" x1="247.851" y1="28.5945" x2="109.314" y2="22.4995" gradientUnits="userSpaceOnUse">
<stop stop-color="#EFE227"/>
<stop offset="0.7098" stop-color="#02733D"/>
<stop offset="1" stop-color="#008D45"/>
</linearGradient>
<linearGradient id="paint8_linear_2001_704" x1="223.578" y1="29.8757" x2="131.89" y2="25.8417" gradientUnits="userSpaceOnUse">
<stop stop-color="#EFE227"/>
<stop offset="0.7098" stop-color="#02733D"/>
<stop offset="1" stop-color="#008D45"/>
</linearGradient>
<linearGradient id="paint9_linear_2001_704" x1="15.9305" y1="33.3827" x2="59.9982" y2="33.3827" gradientUnits="userSpaceOnUse">
<stop stop-color="#00773F"/>
<stop offset="0.502" stop-color="#9EC26E"/>
<stop offset="1" stop-color="#007D42"/>
</linearGradient>
<linearGradient id="paint10_linear_2001_704" x1="13.2736" y1="22.5527" x2="66.22" y2="22.5527" gradientUnits="userSpaceOnUse">
<stop stop-color="#EFE227"/>
<stop offset="0.7098" stop-color="#02733D"/>
<stop offset="1" stop-color="#008D45"/>
</linearGradient>
<linearGradient id="paint11_linear_2001_704" x1="19.5594" y1="47.5524" x2="59.9982" y2="47.5524" gradientUnits="userSpaceOnUse">
<stop stop-color="#007F42"/>
<stop offset="0.7098" stop-color="#187C3E"/>
<stop offset="1" stop-color="#99AE2E"/>
</linearGradient>
<linearGradient id="paint12_linear_2001_704" x1="21.9005" y1="43.3133" x2="-0.544357" y2="43.6625" gradientUnits="userSpaceOnUse">
<stop stop-color="#EFE227"/>
<stop offset="0.7098" stop-color="#02733D"/>
<stop offset="1" stop-color="#008D45"/>
</linearGradient>
<linearGradient id="paint13_linear_2001_704" x1="18.3263" y1="51.5337" x2="-13.6" y2="52.0303" gradientUnits="userSpaceOnUse">
<stop stop-color="#EFE227"/>
<stop offset="0.7098" stop-color="#02733D"/>
<stop offset="1" stop-color="#008D45"/>
</linearGradient>
<linearGradient id="paint14_linear_2001_704" x1="22.1464" y1="47.4153" x2="-4.05448" y2="47.8229" gradientUnits="userSpaceOnUse">
<stop stop-color="#EFE227"/>
<stop offset="0.7098" stop-color="#02733D"/>
<stop offset="1" stop-color="#008D45"/>
</linearGradient>
</defs>
</svg>
