<svg width="134" height="131" viewBox="0 0 134 131" fill="none" xmlns="http://www.w3.org/2000/svg">
<g clip-path="url(#clip0_422_4988)">
<path d="M13.5957 127.679C13.5003 128.107 13.3572 128.392 13.1664 128.582H16.0763V125.017H13.8342L13.7865 126.063C13.7388 126.728 13.6911 127.251 13.5957 127.679ZM17.4597 128.582V130.246H16.8396V129.105H12.6416V130.246H12.0215V128.582H12.3077C12.6416 128.582 12.8324 128.345 12.9279 127.869C13.0233 127.441 13.1187 126.823 13.1664 126.015L13.2141 124.447H16.6488V128.582H17.4597Z" fill="#00934D"/>
<path d="M21.9439 128.392C22.2301 128.25 22.4209 128.012 22.5641 127.727C22.7072 127.441 22.8026 127.109 22.8026 126.776C22.8026 126.443 22.7072 126.11 22.5641 125.825C22.4209 125.54 22.2301 125.35 21.9439 125.16C21.6577 125.017 21.3715 124.922 21.0375 124.922C20.7036 124.922 20.4174 125.017 20.1312 125.16C19.8449 125.302 19.6541 125.54 19.511 125.825C19.3679 126.11 19.2725 126.443 19.2725 126.776C19.2725 127.109 19.3679 127.441 19.511 127.727C19.6541 128.012 19.8926 128.202 20.1312 128.392C20.4174 128.535 20.7036 128.63 21.0375 128.63C21.4192 128.63 21.7054 128.535 21.9439 128.392ZM19.8449 128.867C19.4633 128.677 19.1771 128.392 18.9863 128.012C18.7955 127.632 18.6523 127.251 18.6523 126.776C18.6523 126.301 18.7478 125.92 18.9863 125.54C19.1771 125.16 19.4633 124.875 19.8449 124.684C20.2266 124.494 20.6082 124.399 21.0852 124.399C21.5146 124.399 21.9439 124.494 22.3255 124.684C22.7072 124.875 22.9934 125.16 23.1842 125.54C23.375 125.92 23.4704 126.301 23.4704 126.776C23.4704 127.251 23.375 127.632 23.1842 128.012C22.9934 128.392 22.7072 128.677 22.3255 128.867C21.9439 129.058 21.5623 129.153 21.0852 129.153C20.6082 129.153 20.2266 129.058 19.8449 128.867Z" fill="#00934D"/>
<path d="M25.9504 128.867C25.5688 128.677 25.2826 128.392 25.0917 128.012C24.9009 127.632 24.7578 127.251 24.7578 126.776C24.7578 126.301 24.8532 125.92 25.0917 125.54C25.2826 125.16 25.5688 124.875 25.9504 124.684C26.332 124.494 26.7137 124.399 27.1907 124.399C27.5723 124.399 27.954 124.494 28.2879 124.637C28.6218 124.779 28.8603 125.017 29.0512 125.302L28.5741 125.635C28.431 125.397 28.2402 125.207 28.0017 125.112C27.7632 125.017 27.5246 124.922 27.2384 124.922C26.9045 124.922 26.6183 125.017 26.332 125.16C26.0458 125.302 25.855 125.54 25.7119 125.825C25.5688 126.11 25.4734 126.443 25.4734 126.776C25.4734 127.156 25.5688 127.441 25.7119 127.727C25.855 128.012 26.0935 128.202 26.332 128.345C26.6183 128.487 26.9045 128.582 27.2384 128.582C27.5246 128.582 27.7632 128.535 28.0017 128.392C28.2402 128.297 28.431 128.107 28.5741 127.869L29.0512 128.202C28.8603 128.487 28.6218 128.725 28.2879 128.867C27.954 129.01 27.62 129.105 27.1907 129.105C26.7614 129.153 26.332 129.058 25.9504 128.867Z" fill="#00934D"/>
<path d="M33.9177 125.017H32.1526V129.105H31.5325V125.017H29.7197V124.447H33.9177V125.017Z" fill="#00934D"/>
<path d="M37.591 128.44C37.8296 128.297 38.0204 128.059 38.1635 127.727V126.966H36.6847C35.8737 126.966 35.4921 127.251 35.4921 127.822C35.4921 128.107 35.5875 128.297 35.826 128.487C36.0168 128.63 36.303 128.725 36.6847 128.725C37.0186 128.677 37.3525 128.582 37.591 128.44ZM38.3066 124.875C38.6405 125.16 38.7836 125.635 38.7836 126.205V129.105H38.1635V128.392C38.0204 128.63 37.8296 128.82 37.5433 128.963C37.2571 129.105 36.9232 129.153 36.5416 129.153C36.0168 129.153 35.5875 129.01 35.3013 128.772C35.015 128.535 34.8242 128.202 34.8242 127.774C34.8242 127.394 34.9673 127.061 35.2536 126.823C35.5398 126.586 36.0168 126.443 36.637 126.443H38.1635V126.158C38.1635 125.778 38.0681 125.445 37.8296 125.255C37.591 125.065 37.2571 124.922 36.8278 124.922C36.5416 124.922 36.2553 124.97 35.9691 125.065C35.6829 125.16 35.4444 125.302 35.2536 125.492L34.9673 125.017C35.2059 124.827 35.4921 124.637 35.826 124.542C36.1599 124.447 36.4939 124.399 36.8755 124.399C37.4956 124.399 37.9727 124.589 38.3066 124.875Z" fill="#00934D"/>
<path d="M43.9349 128.44C44.1257 128.297 44.2211 128.107 44.2211 127.822C44.2211 127.536 44.1257 127.346 43.9349 127.204C43.7441 127.061 43.4578 127.014 43.0762 127.014H41.502V128.63H42.9808C43.4101 128.63 43.7441 128.582 43.9349 128.44ZM41.5497 126.538H42.9808C43.3624 126.538 43.601 126.491 43.7918 126.348C43.9826 126.205 44.078 126.015 44.078 125.73C44.078 125.492 43.9826 125.255 43.7918 125.16C43.601 125.017 43.3147 124.97 42.9808 124.97H41.5497V126.538ZM44.8413 127.869C44.8413 128.297 44.6981 128.582 44.3642 128.82C44.078 129.058 43.601 129.153 43.0285 129.153H40.8818V124.494H42.9331C43.4578 124.494 43.8872 124.589 44.1734 124.827C44.4596 125.017 44.6504 125.35 44.6504 125.73C44.6504 125.968 44.6027 126.205 44.4596 126.396C44.3165 126.586 44.1257 126.728 43.8872 126.823C44.555 126.871 44.8413 127.251 44.8413 127.869Z" fill="#00934D"/>
<path d="M48.4675 127.061H47.418V129.105H46.7979V124.447H47.418V126.491H48.5152L50.1371 124.447H50.8527L48.9922 126.728L50.9481 129.105H50.2325L48.4675 127.061Z" fill="#00934D"/>
<path d="M54.6213 128.44C54.8598 128.297 55.0506 128.059 55.1938 127.727V126.966H53.7149C52.904 126.966 52.5223 127.251 52.5223 127.822C52.5223 128.107 52.6178 128.297 52.8563 128.487C53.0471 128.63 53.3333 128.725 53.7149 128.725C54.0489 128.677 54.3828 128.582 54.6213 128.44ZM55.3369 124.875C55.6708 125.16 55.8139 125.635 55.8139 126.205V129.105H55.1938V128.392C55.0506 128.63 54.8598 128.82 54.5736 128.963C54.2874 129.105 53.9535 129.153 53.5718 129.153C53.0471 129.153 52.6178 129.01 52.3315 128.772C52.0453 128.535 51.8545 128.202 51.8545 127.774C51.8545 127.394 51.9976 127.061 52.2838 126.823C52.5701 126.586 53.0471 126.443 53.6672 126.443H55.1461V126.158C55.1461 125.778 55.0506 125.445 54.8121 125.255C54.5736 125.065 54.2397 124.922 53.8104 124.922C53.5241 124.922 53.2379 124.97 52.9517 125.065C52.6655 125.16 52.4269 125.302 52.2361 125.492L51.9499 125.017C52.1884 124.827 52.4746 124.637 52.8086 124.542C53.1425 124.447 53.4764 124.399 53.8581 124.399C54.5259 124.399 55.0029 124.589 55.3369 124.875Z" fill="#00934D"/>
<path d="M63.7319 128.44C63.9227 128.297 64.0181 128.107 64.0181 127.822C64.0181 127.536 63.9227 127.346 63.7319 127.204C63.5411 127.061 63.2549 127.014 62.8732 127.014H61.299V128.63H62.7778C63.2549 128.63 63.5411 128.582 63.7319 128.44ZM61.3467 126.538H62.7778C63.1595 126.538 63.398 126.491 63.5888 126.348C63.7796 126.205 63.875 126.015 63.875 125.73C63.875 125.492 63.7796 125.255 63.5888 125.16C63.398 125.017 63.1118 124.97 62.7778 124.97H61.3467V126.538ZM64.686 127.869C64.686 128.297 64.5429 128.582 64.2089 128.82C63.9227 129.058 63.4457 129.153 62.8732 129.153H60.7266V124.494H62.7778C63.3026 124.494 63.7319 124.589 64.0181 124.827C64.3043 125.017 64.4952 125.35 64.4952 125.73C64.4952 125.968 64.4475 126.205 64.3043 126.396C64.1612 126.586 63.9704 126.728 63.7319 126.823C64.3521 126.871 64.686 127.251 64.686 127.869Z" fill="#00934D"/>
<path d="M68.3121 127.061H67.2626V129.105H66.5947V124.447H67.2626V126.491H68.3121L69.9817 124.447H70.6496L68.7891 126.728L70.7927 129.105H70.0294L68.3121 127.061Z" fill="#00934D"/>
<path d="M75.9443 124.447L73.6068 129.676C73.416 130.103 73.1775 130.436 72.939 130.626C72.7004 130.816 72.3665 130.911 72.0326 130.911C71.7941 130.911 71.6032 130.864 71.4124 130.816C71.2216 130.769 71.0308 130.626 70.8877 130.484L71.1739 130.008C71.4124 130.246 71.6987 130.341 72.0326 130.341C72.2234 130.341 72.4142 130.294 72.5573 130.151C72.7004 130.056 72.8435 129.818 72.9867 129.533L73.1775 129.058L71.0785 124.399H71.7464L73.5114 128.392L75.2764 124.399L75.9443 124.447Z" fill="#00934D"/>
<path d="M77.9485 128.867C77.5668 128.677 77.2806 128.392 77.0898 128.012C76.899 127.632 76.7559 127.251 76.7559 126.776C76.7559 126.301 76.8513 125.92 77.0898 125.54C77.2806 125.16 77.5668 124.875 77.9485 124.684C78.3301 124.494 78.7117 124.399 79.1888 124.399C79.5704 124.399 79.952 124.494 80.2859 124.637C80.6199 124.779 80.8584 125.017 81.0492 125.302L80.5722 125.635C80.4291 125.397 80.2382 125.207 79.9997 125.112C79.7612 125.017 79.5227 124.922 79.2365 124.922C78.9025 124.922 78.6163 125.017 78.3301 125.16C78.0439 125.302 77.853 125.54 77.7099 125.825C77.5668 126.11 77.4714 126.443 77.4714 126.776C77.4714 127.156 77.5668 127.441 77.7099 127.727C77.853 128.012 78.0916 128.202 78.3301 128.345C78.6163 128.487 78.9025 128.582 79.2365 128.582C79.5227 128.582 79.7612 128.535 79.9997 128.392C80.2382 128.297 80.4291 128.107 80.5722 127.869L81.0492 128.202C80.8584 128.487 80.6199 128.725 80.2859 128.867C79.952 129.01 79.6181 129.105 79.1888 129.105C78.7594 129.153 78.3301 129.058 77.9485 128.867Z" fill="#00934D"/>
<path d="M82.7188 124.447H83.3389V126.538H86.2965V124.447H86.9167V129.105H86.2965V127.061H83.3389V129.105H82.7188V124.447Z" fill="#00934D"/>
<path d="M92.0209 128.392C92.3071 128.25 92.4979 128.012 92.6411 127.727C92.7842 127.441 92.8796 127.109 92.8796 126.776C92.8796 126.443 92.7842 126.11 92.6411 125.825C92.4979 125.54 92.3071 125.35 92.0209 125.16C91.7347 125.017 91.4485 124.922 91.1145 124.922C90.7806 124.922 90.4944 125.017 90.2082 125.16C89.9219 125.302 89.7311 125.54 89.588 125.825C89.4449 126.11 89.3495 126.443 89.3495 126.776C89.3495 127.109 89.4449 127.441 89.588 127.727C89.7311 128.012 89.9696 128.202 90.2082 128.392C90.4944 128.535 90.7806 128.63 91.1145 128.63C91.4485 128.63 91.7347 128.535 92.0209 128.392ZM89.8742 128.867C89.4926 128.677 89.2064 128.392 89.0156 128.012C88.8248 127.632 88.6816 127.251 88.6816 126.776C88.6816 126.301 88.7771 125.92 89.0156 125.54C89.2064 125.16 89.4926 124.875 89.8742 124.684C90.2559 124.494 90.6375 124.399 91.1145 124.399C91.5439 124.399 91.9732 124.494 92.3548 124.684C92.7365 124.875 93.0227 125.16 93.2135 125.54C93.4043 125.92 93.4997 126.301 93.4997 126.776C93.4997 127.251 93.4043 127.632 93.2135 128.012C93.0227 128.392 92.7365 128.677 92.3548 128.867C91.9732 129.058 91.5916 129.153 91.1145 129.153C90.6375 129.153 90.2559 129.058 89.8742 128.867Z" fill="#00934D"/>
<path d="M96.4574 123.496C96.2189 123.306 96.0758 123.021 96.0758 122.64H96.5528C96.5528 122.878 96.6482 123.068 96.7913 123.211C96.9344 123.353 97.1729 123.401 97.4115 123.401C97.65 123.401 97.8885 123.353 98.0316 123.211C98.1747 123.068 98.2701 122.878 98.2701 122.64H98.7472C98.7472 123.021 98.6041 123.306 98.3655 123.496C98.127 123.686 97.7931 123.781 97.4115 123.781C97.0298 123.781 96.6959 123.686 96.4574 123.496ZM95.3125 124.447H95.9327V128.154L99.0811 124.447H99.6535V129.105H99.0334V125.397L95.9327 129.105H95.3602L95.3125 124.447Z" fill="#00934D"/>
<path d="M105.33 125.397C105.044 125.683 104.853 126.063 104.806 126.538H108.145C108.097 126.063 107.906 125.683 107.62 125.397C107.334 125.112 106.952 124.97 106.475 124.97C106.046 124.97 105.664 125.112 105.33 125.397ZM108.765 126.966H104.853C104.901 127.441 105.092 127.822 105.426 128.154C105.76 128.44 106.189 128.582 106.714 128.582C107 128.582 107.286 128.535 107.525 128.44C107.763 128.345 108.002 128.202 108.145 127.964L108.479 128.392C108.288 128.63 108.002 128.82 107.716 128.963C107.382 129.105 107.048 129.153 106.666 129.153C106.189 129.153 105.76 129.058 105.378 128.867C104.997 128.677 104.71 128.392 104.519 128.012C104.329 127.632 104.186 127.251 104.186 126.776C104.186 126.301 104.281 125.92 104.472 125.54C104.663 125.16 104.949 124.875 105.283 124.684C105.617 124.494 105.998 124.399 106.475 124.399C106.905 124.399 107.286 124.494 107.62 124.684C107.954 124.875 108.24 125.16 108.431 125.54C108.622 125.92 108.717 126.301 108.717 126.776L108.765 126.966Z" fill="#00934D"/>
<path d="M111.245 127.679C111.15 128.107 111.007 128.392 110.816 128.582H113.726V125.017H111.484L111.436 126.063C111.388 126.728 111.341 127.251 111.245 127.679ZM115.061 128.582V130.246H114.489V129.105H110.291V130.246H109.671V128.582H109.957C110.291 128.582 110.482 128.345 110.577 127.869C110.673 127.441 110.768 126.823 110.816 126.015L110.863 124.447H114.298V128.582H115.061Z" fill="#00934D"/>
<path d="M121.311 124.447H121.931V129.105H121.311V124.447ZM119.546 128.392C119.785 128.202 119.88 127.964 119.88 127.584C119.88 127.251 119.785 126.966 119.546 126.823C119.308 126.681 118.974 126.586 118.544 126.586H117.352V128.677H118.544C119.021 128.677 119.355 128.582 119.546 128.392ZM120.071 126.491C120.357 126.728 120.548 127.109 120.548 127.584C120.548 128.059 120.405 128.44 120.071 128.725C119.737 129.01 119.26 129.105 118.64 129.105H116.779V124.447H117.399V126.063H118.735C119.308 126.11 119.737 126.253 120.071 126.491Z" fill="#00934D"/>
<path fill-rule="evenodd" clip-rule="evenodd" d="M0.429482 107.572C0.429482 110.662 2.81467 111.517 5.96312 112.04C7.48965 112.278 8.77765 112.325 8.77765 113.656C8.77765 115.082 7.29883 115.558 5.96312 115.558C4.48431 115.558 2.81467 115.035 1.8606 114.132L0.0478516 116.508C1.52667 117.744 3.72104 118.552 5.91542 118.552C9.06387 118.552 12.0215 116.889 12.0215 113.419C12.0215 110.566 9.97024 109.663 5.96312 108.95C4.77053 108.713 3.67334 108.522 3.67334 107.334C3.67334 105.956 5.05675 105.48 6.29705 105.48C7.68046 105.48 9.15928 106.051 10.0179 106.954L11.8307 104.53C10.3519 103.246 8.25291 102.486 6.24935 102.486C3.29171 102.486 0.429482 104.197 0.429482 107.572Z" fill="url(#paint0_linear_422_4988)"/>
<path fill-rule="evenodd" clip-rule="evenodd" d="M27.5725 113.038V103.008H24.3287V113.228C24.3287 115.035 22.7544 115.558 21.4664 115.558C20.1784 115.558 18.6042 115.035 18.6042 113.228V103.008H15.3604V113.038C15.3604 116.746 18.318 118.552 21.4664 118.552C24.6149 118.552 27.5725 116.746 27.5725 113.038Z" fill="url(#paint1_linear_422_4988)"/>
<path fill-rule="evenodd" clip-rule="evenodd" d="M37.8764 103.008H31.7227V118.077H34.9665V112.896H37.8764C40.5956 112.896 42.8376 111.422 42.8376 107.952C42.8376 104.53 40.5479 103.008 37.8764 103.008ZM34.9665 106.003H37.8764C38.7828 106.003 39.5938 106.241 39.5938 107.952C39.5938 109.663 38.7351 109.853 37.8764 109.853H34.9665V106.003Z" fill="url(#paint2_linear_422_4988)"/>
<path fill-rule="evenodd" clip-rule="evenodd" d="M56.2905 118.029V115.035H49.278V112.04H55.1933V108.998H49.278V106.003H56.2905V103.008H46.0342V118.029H56.2905Z" fill="url(#paint3_linear_422_4988)"/>
<path fill-rule="evenodd" clip-rule="evenodd" d="M66.2602 103.008H60.1064V118.077H63.3503V112.896H64.8768L67.9776 118.077H71.6508L68.2161 112.61C69.9811 112.04 71.2214 110.566 71.2214 108C71.2214 104.53 68.9316 103.008 66.2602 103.008ZM63.3503 106.003H66.2602C67.1666 106.003 67.9776 106.241 67.9776 107.952C67.9776 109.663 67.1189 109.853 66.2602 109.853H63.3503V106.003Z" fill="url(#paint4_linear_422_4988)"/>
<path fill-rule="evenodd" clip-rule="evenodd" d="M87.6318 110.519C87.6318 116.033 90.5895 118.552 94.5489 118.552C98.5083 118.552 101.466 116.033 101.466 110.519C101.466 105.005 98.5083 102.486 94.5489 102.486C90.5895 102.486 87.6318 105.005 87.6318 110.519ZM90.8757 110.519C90.8757 106.716 92.3545 105.48 94.5489 105.48C96.7433 105.48 98.2221 106.669 98.2221 110.519C98.2221 114.369 96.7433 115.558 94.5489 115.558C92.3545 115.558 90.8757 114.322 90.8757 110.519Z" fill="url(#paint5_linear_422_4988)"/>
<path fill-rule="evenodd" clip-rule="evenodd" d="M104.472 110.519C104.472 116.033 107.429 118.552 111.389 118.552C115.348 118.552 118.306 116.033 118.306 110.519C118.306 105.005 115.348 102.486 111.389 102.486C107.429 102.486 104.472 105.005 104.472 110.519ZM107.716 110.519C107.716 106.716 109.194 105.48 111.389 105.48C113.583 105.48 115.062 106.669 115.062 110.519C115.062 114.369 113.583 115.558 111.389 115.558C109.194 115.558 107.716 114.322 107.716 110.519Z" fill="url(#paint6_linear_422_4988)"/>
<path fill-rule="evenodd" clip-rule="evenodd" d="M126.51 103.008H121.979V118.077H126.51C130.804 118.077 134 115.7 134 110.566C134 105.338 130.804 103.008 126.51 103.008ZM125.175 106.003H126.415C129.086 106.003 130.756 107.144 130.756 110.519C130.756 113.894 129.086 115.035 126.415 115.035H125.175V106.003Z" fill="url(#paint7_linear_422_4988)"/>
<path fill-rule="evenodd" clip-rule="evenodd" d="M85.2944 103.008H75.0381V118.029H78.2819V112.04H84.1972V108.998H78.2819V106.003H85.2944V103.008Z" fill="url(#paint8_linear_422_4988)"/>
<path d="M67.3581 27.19L60.2502 10.8855L65.9746 10.4102L65.9269 9.31686L59.7731 9.79221L56.7201 2.8521L55.6229 4.61089L57.865 9.93481L55.1459 10.1725L55.2413 11.2658L58.342 11.0281L59.1053 12.8345L52.4268 13.3573L54.3826 27.4277H61.8721L61.1089 17.6355L65.2591 27.4277L67.3581 27.19Z" fill="#7DC1D0"/>
<path d="M84.3402 0.950698C83.243 1.80633 78.6157 -1.42605 81.5733 6.60737C82.7659 6.70244 90.0169 7.463 90.7325 7.27286C92.8314 6.6549 93.07 1.52112 90.8279 1.33098C89.1582 1.18837 89.683 3.47005 89.206 3.75526C88.7766 3.99294 88.2519 3.75526 88.0134 3.37498C87.5363 2.75703 88.0611 1.80633 87.7748 1.0933C87.3455 -0.0475378 86.2483 -0.570423 84.3402 0.950698Z" fill="#9DC147"/>
<path d="M84.8172 7.41546C84.6264 7.32039 84.3878 7.27286 84.2447 7.22532C84.3878 6.17955 84.1016 5.41899 83.6246 4.84857C83.6723 4.13555 83.5769 3.37499 82.7659 2.99471C81.9072 2.61443 81.7164 3.04224 81.3825 3.51759C80.3807 3.47006 80.3807 2.09154 80.1422 1.37852C79.9514 0.85563 79.7129 0.617955 79.1404 0.57042C78.3772 0.522885 78.1386 0.998235 77.6139 1.42605C76.7075 2.13908 75.1333 0.713025 74.4655 1.9014C73.7499 3.18485 74.6563 5.37146 75.0856 6.55983L75.8966 6.60737C75.7058 8.03342 75.7535 9.55454 76.2305 10.838C77.9955 10.838 85.819 10.9331 86.0575 10.7905C86.5345 10.6003 87.4409 8.31863 84.8172 7.41546Z" fill="#84A148"/>
<path d="M78.6162 27.4277L81.4307 10.9806C82.7187 3.56512 92.0687 5.98941 92.0687 5.98941L88.3955 27.4277H78.6162Z" fill="#EBC337"/>
<path d="M70.6016 27.4277L75.2765 2.99471L75.849 3.08978C83.0046 4.56336 81.6688 9.507 81.3826 11.2183L78.6158 27.3802H70.6016V27.4277Z" fill="#ECB037"/>
<path d="M108.622 18.2535L106.237 15.0211C105.807 14.4506 105.235 14.0704 104.519 13.9278L96.696 12.4542C96.4575 12.4066 96.2667 12.5492 96.1713 12.7869L94.931 17.8256C93.4045 17.9682 92.3073 18.5387 92.1165 19.3468L90.3037 27.5228H106.428L108.622 18.7763C108.765 18.6337 108.765 18.4436 108.622 18.2535Z" fill="#3F4543"/>
<path d="M97.3159 13.5475L98.9855 15.8292C99.4626 16.4946 100.178 16.9225 101.037 17.0651L107.286 18.2059C107.62 18.2534 107.858 17.9207 107.668 17.6355L105.664 15.0211C105.33 14.5932 104.805 14.2605 104.233 14.1654L97.6975 12.9771C97.3636 12.9295 97.1251 13.2623 97.3159 13.5475Z" fill="#FEFEFE"/>
<path d="M100.13 14.5933L100.893 15.5915C101.132 15.8767 101.466 16.0668 101.8 16.1144L104.662 16.5897C104.805 16.6373 104.901 16.4471 104.805 16.3521L103.899 15.2112C103.756 15.0211 103.517 14.8785 103.231 14.8309L100.273 14.308C100.13 14.3556 100.035 14.4982 100.13 14.5933Z" fill="#ED6C76"/>
<path d="M102.515 21.4383C102.277 22.5316 99.9392 22.9594 97.2678 22.389C94.5964 21.8186 92.6405 20.4876 92.8791 19.3943C93.1176 18.301 95.4551 17.8732 98.1265 18.4436C100.798 18.9665 102.754 20.345 102.515 21.4383Z" fill="#FCFBFD"/>
<path d="M99.6051 20.8203C99.5097 21.2482 98.6033 21.3908 97.6015 21.2006C96.5997 20.9629 95.8365 20.4401 95.9319 20.0598C96.0273 19.632 96.9337 19.4894 97.9354 19.6795C98.9372 19.8696 99.7005 20.3925 99.6051 20.8203Z" fill="#FDCD69"/>
<path d="M70.0294 12.0264L69.6478 10.1725L51.5681 11.5035L51.4727 13.4524L60.7272 12.7394L61.8721 27.4277H69.3139L69.0754 12.0739L70.0294 12.0264Z" fill="#00949B"/>
<path d="M37.0182 21.8661L35.4917 22.5316L29.958 9.64961L31.5322 8.98412L37.0182 21.8661Z" fill="#EBC337"/>
<path d="M44.9365 20.7253L46.6062 20.9629L48.3235 7.03519L46.6539 6.84505L44.9365 20.7253Z" fill="#EBC337"/>
<path d="M36.1595 22.4365L34.4899 22.6742L32.4863 8.84151L34.156 8.60384L36.1595 22.4365Z" fill="#ED8D37"/>
<path d="M38.4496 22.1038L36.7799 22.3415L34.7764 8.50876L36.446 8.27109L38.4496 22.1038Z" fill="#ED8D37"/>
<path d="M40.7386 21.8186L39.069 22.0563L37.0654 8.17603L38.7828 7.93835L40.7386 21.8186Z" fill="#ED8D37"/>
<path d="M43.0288 21.4858L41.3592 21.7235L39.4033 7.84328L41.073 7.60561L43.0288 21.4858Z" fill="#ED8D37"/>
<path d="M45.3188 21.1531L43.6492 21.3908L41.6934 7.51053L43.363 7.27286L45.3188 21.1531Z" fill="#ED8D37"/>
<path d="M47.6556 20.8203L45.986 21.058L43.9824 7.17778L45.6521 6.94011L47.6556 20.8203Z" fill="#ED8D37"/>
<path d="M45.4615 12.7394L45.6046 13.6901C45.8431 15.2112 44.7459 16.6373 43.2194 16.8749L37.6381 17.683C36.1115 17.9207 34.6804 16.8274 34.4419 15.3063L34.2988 14.3556L30.8164 14.8309L33.5832 27.4277H49.9933L48.9916 12.264C48.9439 12.264 45.4615 12.7394 45.4615 12.7394Z" fill="#DC3B37"/>
<path fill-rule="evenodd" clip-rule="evenodd" d="M29.5762 45.5861L69.9813 71.1124H103.04L51.5199 39.7868L29.5762 45.5861Z" fill="url(#paint9_linear_422_4988)"/>
<path fill-rule="evenodd" clip-rule="evenodd" d="M113.439 29.3291H25.1396L29.5761 45.5861H109.528L113.439 29.3291Z" fill="url(#paint10_linear_422_4988)"/>
<path fill-rule="evenodd" clip-rule="evenodd" d="M40.0712 86.799H99.2716L103.04 71.1124H35.6348L40.0712 86.799Z" fill="url(#paint11_linear_422_4988)"/>
<path d="M54.4303 92.8834C54.4303 95.688 52.1405 97.9697 49.326 97.9697C46.5115 97.9697 44.2217 95.688 44.2217 92.8834C44.2217 90.0789 46.5115 87.7972 49.326 87.7972C52.1405 87.7972 54.4303 90.0789 54.4303 92.8834Z" fill="#7B4C5A"/>
<path d="M51.0431 92.8834C51.0431 93.8341 50.2798 94.5947 49.3257 94.5947C48.3717 94.5947 47.6084 93.8341 47.6084 92.8834C47.6084 91.9327 48.3717 91.1722 49.3257 91.1722C50.2798 91.1722 51.0431 91.9327 51.0431 92.8834Z" fill="#FEFEFE"/>
<path d="M95.8365 92.8834C95.8365 95.688 93.5468 97.9697 90.7322 97.9697C87.9177 97.9697 85.6279 95.688 85.6279 92.8834C85.6279 90.0789 87.9177 87.7972 90.7322 87.7972C93.5468 87.7972 95.8365 90.0789 95.8365 92.8834Z" fill="#7B4C5A"/>
<path d="M92.4503 92.8834C92.4503 93.8341 91.687 94.5947 90.733 94.5947C89.7789 94.5947 89.0156 93.8341 89.0156 92.8834C89.0156 91.9327 89.7789 91.1722 90.733 91.1722C91.6393 91.1722 92.4503 91.9327 92.4503 92.8834Z" fill="#FEFEFE"/>
<path fill-rule="evenodd" clip-rule="evenodd" d="M33.3445 71.0648H3.00488L33.9169 73.4416L33.3445 71.0648Z" fill="url(#paint12_linear_422_4988)"/>
<path fill-rule="evenodd" clip-rule="evenodd" d="M36.6843 84.6599H8.53906L37.2091 86.799L36.6843 84.6599Z" fill="url(#paint13_linear_422_4988)"/>
<path fill-rule="evenodd" clip-rule="evenodd" d="M11.9736 78.005L35.4916 79.9539L35.0146 77.8624L11.9736 78.005Z" fill="url(#paint14_linear_422_4988)"/>
<path d="M88.9675 16.0193C88.8721 16.4946 87.6795 16.6373 86.2961 16.352C84.9126 16.0668 83.9109 15.4489 84.0063 14.9735C84.1017 14.4982 85.2943 14.3556 86.6777 14.6408C88.0611 14.926 89.1106 15.5439 88.9675 16.0193Z" fill="#ECB037"/>
<path d="M88.2048 21.058C88.1094 21.5334 86.9168 21.676 85.5334 21.3908C84.15 21.1055 83.1482 20.4876 83.2436 20.0122C83.339 19.5369 84.5316 19.3943 85.915 19.6795C87.2984 19.9647 88.3002 20.5827 88.2048 21.058Z" fill="#ECB037"/>
</g>
<defs>
<linearGradient id="paint0_linear_422_4988" x1="148.289" y1="116.756" x2="33.5517" y2="111.686" gradientUnits="userSpaceOnUse">
<stop stop-color="#EFE227"/>
<stop offset="0.7098" stop-color="#02733D"/>
<stop offset="1" stop-color="#008D45"/>
</linearGradient>
<linearGradient id="paint1_linear_422_4988" x1="148.312" y1="116.208" x2="33.5755" y2="111.139" gradientUnits="userSpaceOnUse">
<stop stop-color="#EFE227"/>
<stop offset="0.7098" stop-color="#02733D"/>
<stop offset="1" stop-color="#008D45"/>
</linearGradient>
<linearGradient id="paint2_linear_422_4988" x1="148.344" y1="115.493" x2="33.607" y2="110.423" gradientUnits="userSpaceOnUse">
<stop stop-color="#EFE227"/>
<stop offset="0.7098" stop-color="#02733D"/>
<stop offset="1" stop-color="#008D45"/>
</linearGradient>
<linearGradient id="paint3_linear_422_4988" x1="148.376" y1="114.781" x2="33.6389" y2="109.712" gradientUnits="userSpaceOnUse">
<stop stop-color="#EFE227"/>
<stop offset="0.7098" stop-color="#02733D"/>
<stop offset="1" stop-color="#008D45"/>
</linearGradient>
<linearGradient id="paint4_linear_422_4988" x1="148.4" y1="114.251" x2="33.6614" y2="109.182" gradientUnits="userSpaceOnUse">
<stop stop-color="#EFE227"/>
<stop offset="0.7098" stop-color="#02733D"/>
<stop offset="1" stop-color="#008D45"/>
</linearGradient>
<linearGradient id="paint5_linear_422_4988" x1="144.302" y1="112.698" x2="29.5648" y2="107.629" gradientUnits="userSpaceOnUse">
<stop stop-color="#EFE227"/>
<stop offset="0.7098" stop-color="#02733D"/>
<stop offset="1" stop-color="#008D45"/>
</linearGradient>
<linearGradient id="paint6_linear_422_4988" x1="144.335" y1="111.961" x2="29.5978" y2="106.892" gradientUnits="userSpaceOnUse">
<stop stop-color="#EFE227"/>
<stop offset="0.7098" stop-color="#02733D"/>
<stop offset="1" stop-color="#008D45"/>
</linearGradient>
<linearGradient id="paint7_linear_422_4988" x1="144.359" y1="111.393" x2="29.6224" y2="106.324" gradientUnits="userSpaceOnUse">
<stop stop-color="#EFE227"/>
<stop offset="0.7098" stop-color="#02733D"/>
<stop offset="1" stop-color="#008D45"/>
</linearGradient>
<linearGradient id="paint8_linear_422_4988" x1="124.256" y1="112.45" x2="48.3202" y2="109.095" gradientUnits="userSpaceOnUse">
<stop stop-color="#EFE227"/>
<stop offset="0.7098" stop-color="#02733D"/>
<stop offset="1" stop-color="#008D45"/>
</linearGradient>
<linearGradient id="paint9_linear_422_4988" x1="29.5676" y1="55.4359" x2="103.046" y2="55.4359" gradientUnits="userSpaceOnUse">
<stop stop-color="#00773F"/>
<stop offset="0.502" stop-color="#9EC26E"/>
<stop offset="1" stop-color="#007D42"/>
</linearGradient>
<linearGradient id="paint10_linear_422_4988" x1="25.1375" y1="37.454" x2="113.42" y2="37.454" gradientUnits="userSpaceOnUse">
<stop stop-color="#EFE227"/>
<stop offset="0.7098" stop-color="#02733D"/>
<stop offset="1" stop-color="#008D45"/>
</linearGradient>
<linearGradient id="paint11_linear_422_4988" x1="35.6186" y1="78.9626" x2="103.046" y2="78.9626" gradientUnits="userSpaceOnUse">
<stop stop-color="#007F42"/>
<stop offset="0.7098" stop-color="#187C3E"/>
<stop offset="1" stop-color="#99AE2E"/>
</linearGradient>
<linearGradient id="paint12_linear_422_4988" x1="39.5217" y1="71.9242" x2="2.0973" y2="72.5088" gradientUnits="userSpaceOnUse">
<stop stop-color="#EFE227"/>
<stop offset="0.7098" stop-color="#02733D"/>
<stop offset="1" stop-color="#008D45"/>
</linearGradient>
<linearGradient id="paint13_linear_422_4988" x1="33.5625" y1="85.5729" x2="-19.6711" y2="86.4045" gradientUnits="userSpaceOnUse">
<stop stop-color="#EFE227"/>
<stop offset="0.7098" stop-color="#02733D"/>
<stop offset="1" stop-color="#008D45"/>
</linearGradient>
<linearGradient id="paint14_linear_422_4988" x1="39.932" y1="78.7349" x2="-3.75499" y2="79.4174" gradientUnits="userSpaceOnUse">
<stop stop-color="#EFE227"/>
<stop offset="0.7098" stop-color="#02733D"/>
<stop offset="1" stop-color="#008D45"/>
</linearGradient>
<clipPath id="clip0_422_4988">
<rect width="134" height="131" fill="white"/>
</clipPath>
</defs>
</svg>
