<svg width="45" height="40" viewBox="0 0 45 40" fill="none" xmlns="http://www.w3.org/2000/svg">
<path d="M26.1659 11.0989L23.2758 4.44135L25.6034 4.24725L25.584 3.80083L23.0818 3.99492L21.8405 1.1611L21.3944 1.87926L22.306 4.05315L21.2004 4.1502L21.2392 4.59663L22.5 4.49958L22.8103 5.23715L20.0948 5.45065L20.89 11.1959H23.9353L23.6249 7.19753L25.3124 11.1959L26.1659 11.0989Z" fill="#7DC1D0"/>
<path d="M33.071 0.384723C32.6249 0.734098 30.7434 -0.585764 31.946 2.69448C32.4309 2.7333 35.3792 3.04386 35.6701 2.96622C36.5236 2.71389 36.6206 0.61764 35.7089 0.540001C35.03 0.481772 35.2434 1.41344 35.0494 1.5299C34.8749 1.62695 34.6615 1.5299 34.5645 1.37462C34.3706 1.12229 34.5839 0.734098 34.4675 0.442952C34.293 -0.0228813 33.8469 -0.236388 33.071 0.384723Z" fill="#9DC147"/>
<path d="M33.265 3.02444C33.1874 2.98562 33.0904 2.96621 33.0322 2.9468C33.0904 2.51978 32.974 2.20923 32.7801 1.97631C32.7995 1.68516 32.7607 1.37461 32.4309 1.21933C32.0818 1.06405 32.0042 1.23874 31.8684 1.43284C31.4611 1.41343 31.4611 0.850546 31.3641 0.5594C31.2865 0.345893 31.1896 0.248844 30.9568 0.229435C30.6465 0.210025 30.5495 0.404122 30.3361 0.57881C29.9676 0.869956 29.3275 0.287664 29.0559 0.772907C28.765 1.29697 29.1335 2.18982 29.3081 2.67506L29.6378 2.69447C29.5603 3.27676 29.5796 3.89787 29.7736 4.42194C30.4913 4.42194 33.6723 4.46076 33.7693 4.40253C33.9633 4.32489 34.3318 3.39322 33.265 3.02444Z" fill="#84A148"/>
<path d="M30.7434 11.196L31.8878 4.48019C32.4115 1.45227 36.2132 2.44217 36.2132 2.44217L34.7197 11.196H30.7434Z" fill="#EBC337"/>
<path d="M27.4848 11.196L29.3857 1.21935L29.6184 1.25816C32.5279 1.85987 31.9848 3.87848 31.8684 4.57723L30.7434 11.1765H27.4848V11.196Z" fill="#ECB037"/>
<path d="M42.9438 7.44985L41.974 6.12998C41.7994 5.89707 41.5666 5.74179 41.2757 5.68356L38.0947 5.08186C37.9977 5.06245 37.9201 5.12068 37.8813 5.21773L37.377 7.27516C36.7563 7.33339 36.3102 7.56631 36.2326 7.89627L35.4955 11.2347H42.0516L42.9438 7.66335C43.002 7.60512 43.002 7.52749 42.9438 7.44985Z" fill="#3F4543"/>
<path d="M38.3468 5.5283L39.0257 6.45997C39.2196 6.7317 39.5106 6.90639 39.8597 6.96462L42.4007 7.43045C42.5364 7.44986 42.6334 7.314 42.5558 7.19754L41.7412 6.13C41.6054 5.95531 41.392 5.81945 41.1593 5.78063L38.502 5.29538C38.3662 5.27597 38.2692 5.41184 38.3468 5.5283Z" fill="#FEFEFE"/>
<path d="M39.4912 5.95533L39.8015 6.36293C39.8985 6.47939 40.0343 6.55703 40.1701 6.57644L41.3339 6.77053C41.3921 6.78994 41.4308 6.71231 41.3921 6.67349L41.0235 6.20765C40.9653 6.13001 40.8684 6.07178 40.752 6.05237L39.5494 5.83887C39.4912 5.85828 39.4524 5.91651 39.4912 5.95533Z" fill="#ED6C76"/>
<path d="M40.461 8.75033C40.364 9.19675 39.4136 9.37144 38.3274 9.13852C37.2412 8.9056 36.4459 8.36213 36.5429 7.91571C36.6399 7.46928 37.5903 7.29459 38.6765 7.52751C39.7627 7.74102 40.558 8.3039 40.461 8.75033Z" fill="#FCFBFD"/>
<path d="M39.2779 8.49802C39.2391 8.67271 38.8705 8.73093 38.4632 8.6533C38.0559 8.55625 37.7456 8.34274 37.7843 8.18746C37.8231 8.01277 38.1917 7.95455 38.599 8.03218C39.0063 8.10982 39.3167 8.32333 39.2779 8.49802Z" fill="#FDCD69"/>
<path d="M27.2521 4.90719L27.0969 4.15021L19.7456 4.69368L19.7068 5.48948L23.4698 5.19833L23.9353 11.1959H26.9611L26.8641 4.9266L27.2521 4.90719Z" fill="#00949B"/>
<path d="M13.8297 8.925L13.209 9.19674L10.959 3.9367L11.5991 3.66496L13.8297 8.925Z" fill="#EBC337"/>
<path d="M17.0495 8.45915L17.7284 8.5562L18.4267 2.86914L17.7478 2.7915L17.0495 8.45915Z" fill="#EBC337"/>
<path d="M13.4805 9.15794L12.8017 9.25499L11.987 3.60675L12.6659 3.5097L13.4805 9.15794Z" fill="#ED8D37"/>
<path d="M14.4116 9.02206L13.7327 9.11911L12.9181 3.47087L13.597 3.37383L14.4116 9.02206Z" fill="#ED8D37"/>
<path d="M15.3426 8.90557L14.6637 9.00262L13.8491 3.33498L14.5473 3.23793L15.3426 8.90557Z" fill="#ED8D37"/>
<path d="M16.2736 8.76971L15.5948 8.86676L14.7995 3.19911L15.4784 3.10207L16.2736 8.76971Z" fill="#ED8D37"/>
<path d="M17.2047 8.63385L16.5258 8.73089L15.7305 3.06325L16.4094 2.9662L17.2047 8.63385Z" fill="#ED8D37"/>
<path d="M18.1551 8.498L17.4762 8.59505L16.6616 2.9274L17.3404 2.83035L18.1551 8.498Z" fill="#ED8D37"/>
<path d="M17.2629 5.19832L17.3211 5.58652C17.4181 6.20763 16.9719 6.78992 16.3512 6.88697L14.0819 7.21694C13.4612 7.31399 12.8793 6.86756 12.7823 6.24645L12.7241 5.85826L11.3082 6.05235L12.4332 11.1959H19.1055L18.6982 5.00423C18.6788 5.00423 17.2629 5.19832 17.2629 5.19832Z" fill="#DC3B37"/>
<path fill-rule="evenodd" clip-rule="evenodd" d="M10.8038 18.6105L27.2326 29.0335H40.6744L19.7262 16.2425L10.8038 18.6105Z" fill="url(#paint0_linear_328_2338)"/>
<path fill-rule="evenodd" clip-rule="evenodd" d="M44.9029 11.9723H9L10.8039 18.6105H43.3124L44.9029 11.9723Z" fill="url(#paint1_linear_328_2338)"/>
<path fill-rule="evenodd" clip-rule="evenodd" d="M15.0711 35.4387H39.1421L40.6744 29.0335H13.2672L15.0711 35.4387Z" fill="url(#paint2_linear_328_2338)"/>
<path d="M20.9094 37.9232C20.9094 39.0683 19.9784 40 18.834 40C17.6896 40 16.7585 39.0683 16.7585 37.9232C16.7585 36.778 17.6896 35.8463 18.834 35.8463C19.9784 35.8463 20.9094 36.778 20.9094 37.9232Z" fill="#7B4C5A"/>
<path d="M19.5323 37.9231C19.5323 38.3113 19.2219 38.6219 18.834 38.6219C18.4461 38.6219 18.1357 38.3113 18.1357 37.9231C18.1357 37.5349 18.4461 37.2244 18.834 37.2244C19.2219 37.2244 19.5323 37.5349 19.5323 37.9231Z" fill="#FEFEFE"/>
<path d="M37.7456 37.9232C37.7456 39.0683 36.8145 40 35.6701 40C34.5258 40 33.5947 39.0683 33.5947 37.9232C33.5947 36.778 34.5258 35.8463 35.6701 35.8463C36.8145 35.8463 37.7456 36.778 37.7456 37.9232Z" fill="#7B4C5A"/>
<path d="M36.3684 37.9231C36.3684 38.3113 36.0581 38.6219 35.6701 38.6219C35.2822 38.6219 34.9719 38.3113 34.9719 37.9231C34.9719 37.5349 35.2822 37.2244 35.6701 37.2244C36.0387 37.2244 36.3684 37.5349 36.3684 37.9231Z" fill="#FEFEFE"/>
<path fill-rule="evenodd" clip-rule="evenodd" d="M12.3362 29.0141H0L12.5689 29.9846L12.3362 29.0141Z" fill="url(#paint3_linear_328_2338)"/>
<path fill-rule="evenodd" clip-rule="evenodd" d="M13.6939 34.5653H2.25L13.9073 35.4387L13.6939 34.5653Z" fill="url(#paint4_linear_328_2338)"/>
<path fill-rule="evenodd" clip-rule="evenodd" d="M3.64648 31.8479L13.2089 32.6437L13.015 31.7897L3.64648 31.8479Z" fill="url(#paint5_linear_328_2338)"/>
<path d="M34.9524 6.53761C34.9136 6.73171 34.4287 6.78994 33.8662 6.67348C33.3037 6.55702 32.8964 6.3047 32.9352 6.1106C32.974 5.9165 33.4589 5.85827 34.0214 5.97473C34.5839 6.09119 35.0106 6.34352 34.9524 6.53761Z" fill="#ECB037"/>
<path d="M34.6421 8.59503C34.6033 8.78913 34.1184 8.84736 33.5559 8.7309C32.9934 8.61444 32.5861 8.36212 32.6249 8.16802C32.6637 7.97392 33.1486 7.91569 33.7111 8.03215C34.2736 8.14861 34.6809 8.40093 34.6421 8.59503Z" fill="#ECB037"/>
<defs>
<linearGradient id="paint0_linear_328_2338" x1="10.8004" y1="22.6324" x2="40.6767" y2="22.6324" gradientUnits="userSpaceOnUse">
<stop stop-color="#00773F"/>
<stop offset="0.502" stop-color="#9EC26E"/>
<stop offset="1" stop-color="#007D42"/>
</linearGradient>
<linearGradient id="paint1_linear_328_2338" x1="8.99911" y1="15.2899" x2="44.8949" y2="15.2899" gradientUnits="userSpaceOnUse">
<stop stop-color="#EFE227"/>
<stop offset="0.7098" stop-color="#02733D"/>
<stop offset="1" stop-color="#008D45"/>
</linearGradient>
<linearGradient id="paint2_linear_328_2338" x1="13.2607" y1="32.2389" x2="40.6767" y2="32.2389" gradientUnits="userSpaceOnUse">
<stop stop-color="#007F42"/>
<stop offset="0.7098" stop-color="#187C3E"/>
<stop offset="1" stop-color="#99AE2E"/>
</linearGradient>
<linearGradient id="paint3_linear_328_2338" x1="14.8478" y1="29.365" x2="-0.369055" y2="29.6017" gradientUnits="userSpaceOnUse">
<stop stop-color="#EFE227"/>
<stop offset="0.7098" stop-color="#02733D"/>
<stop offset="1" stop-color="#008D45"/>
</linearGradient>
<linearGradient id="paint4_linear_328_2338" x1="12.4246" y1="34.9381" x2="-9.22037" y2="35.2748" gradientUnits="userSpaceOnUse">
<stop stop-color="#EFE227"/>
<stop offset="0.7098" stop-color="#02733D"/>
<stop offset="1" stop-color="#008D45"/>
</linearGradient>
<linearGradient id="paint5_linear_328_2338" x1="15.0144" y1="32.146" x2="-2.74885" y2="32.4223" gradientUnits="userSpaceOnUse">
<stop stop-color="#EFE227"/>
<stop offset="0.7098" stop-color="#02733D"/>
<stop offset="1" stop-color="#008D45"/>
</linearGradient>
</defs>
</svg>
