<svg width="327" height="544" viewBox="0 0 327 544" fill="none" xmlns="http://www.w3.org/2000/svg">
<g clip-path="url(#clip0_543_3299)">
<path fill-rule="evenodd" clip-rule="evenodd" d="M269.086 383.911L272.487 380.631L288.801 381.084L287.593 376.849L281.098 378.059L280.645 366.714L294.692 364.899L306.625 365.958L321.277 360.513L326.412 354.764L319.464 340.243L311.911 338.73L311.156 333.285L301.489 327.386L304.359 318.764L302.849 315.587L311.459 312.107L302.093 292.595L286.082 306.057L285.815 305.748L286.272 314.601L277.668 330.789L258.374 345.933L245.859 356.638L256.81 377.004L266.457 378.049L269.086 383.911Z" fill="#FECC00" fill-opacity="0.5" stroke="#3F4543" stroke-width="2" stroke-miterlimit="22.9256"/>
<path fill-rule="evenodd" clip-rule="evenodd" d="M137.115 483.142L122.794 520.088L106.367 543.326L70.6471 520.088L66.4756 486.146L86.5522 462.385L100.467 435.956L100.744 436.598L135.335 434.33L150.44 444.011L139.111 476.533L134.429 481.07L137.115 483.142Z" fill="#FECC00" fill-opacity="0.5" stroke="#3F4543" stroke-width="2" stroke-miterlimit="22.9256"/>
<path fill-rule="evenodd" clip-rule="evenodd" d="M108.461 540.365L111.321 543.065L177.807 532.621L188.236 518.522L181.197 503.9L142.348 477.268L138.541 477.084L134.428 481.07L137.114 483.142L122.793 520.088L108.461 540.365Z" fill="#E31E24" fill-opacity="0.5" stroke="#3F4543" stroke-width="2" stroke-miterlimit="22.9256"/>
<path fill-rule="evenodd" clip-rule="evenodd" d="M166.336 232.875L180.677 235.487L187.455 243.32L184.587 261.074L192.67 263.425L190.584 284.052L195.186 291.674L193.942 291.838L196.359 297.435L190.468 297.737L192.582 308.024L174.456 310.444L174.759 320.578L162.372 319.218L130.876 283.53L120.969 263.164V219.038L141.566 221.91L166.336 232.875Z" fill="#FECC00" fill-opacity="0.5" stroke="#3F4543" stroke-width="2" stroke-miterlimit="22.9256"/>
<path fill-rule="evenodd" clip-rule="evenodd" d="M120.969 219.038L96.981 227.393L87.595 245.409L70.1257 256.114L64.9111 269.169L91.5059 293.452L115.232 314.079L140.523 322.956L158.067 340.545L154.215 328.747L162.523 324.663L162.372 319.218L130.876 283.53L120.969 263.164V219.038Z" fill="#FECC00" fill-opacity="0.5" stroke="#3F4543" stroke-width="2" stroke-miterlimit="22.9256"/>
<path fill-rule="evenodd" clip-rule="evenodd" d="M64.911 269.169L63.3468 278.829L59.1744 315.645L44.0527 340.189L48.2242 370.999L51.092 403.637L72.4723 434.186L95.9788 425.542L94.5512 422.228L100.593 418.144L100.442 412.093L105.276 406.648L132.011 397.572L141.829 370.495L145.303 347.201L153.763 355.218L161.919 352.344L158.067 340.545L140.523 322.956L115.232 314.079L91.5058 293.452L64.911 269.169Z" fill="#FECC00" fill-opacity="0.5" stroke="#3F4543" stroke-width="2" stroke-miterlimit="22.9256"/>
<path fill-rule="evenodd" clip-rule="evenodd" d="M101.935 185.878L32.8411 169.95L8.3325 189.011L0.509766 214.338L8.3325 251.153L30.2338 270.214L63.295 279.279L63.3468 278.829L64.911 269.169L70.1255 256.114L87.5949 245.409L96.9809 227.393L120.968 219.038L141.566 221.91L166.335 232.875L180.676 235.487L187.455 243.32L187.005 246.105L203.881 240.709L227.086 227.393L224.218 184.049L150.17 185.094L101.935 185.878Z" fill="#E31E24" fill-opacity="0.5" stroke="#3F4543" stroke-width="2" stroke-miterlimit="22.9256"/>
<path fill-rule="evenodd" clip-rule="evenodd" d="M62.5639 132.091L32.0582 119.297L25.54 142.796L26.8437 164.728L31.8905 170.689L32.8408 169.95L101.935 185.878L150.17 185.094L224.218 184.049L224.313 185.496L232.561 180.394L226.825 150.368L181.457 99.1916L169.985 93.7087L128.269 103.892L91.244 125.301L62.5639 132.091Z" fill="#FECC00" fill-opacity="0.5" stroke="#3F4543" stroke-width="2" stroke-miterlimit="22.9256"/>
<path fill-rule="evenodd" clip-rule="evenodd" d="M57.8704 4.67245L30.2334 9.89443L53.4384 38.3544L63.3464 66.8152L53.9595 87.1803L33.3618 106.241L32.0581 119.297L62.5638 132.091L91.2439 125.301L128.269 103.892L169.985 93.7087L181.718 88.7476L181.979 69.4262L205.445 25.0385L160.339 18.772L138.958 0.495056H84.9872L57.8704 4.67245Z" fill="#009846" fill-opacity="0.5" stroke="#3F4543" stroke-width="2" stroke-miterlimit="22.9256"/>
<path fill-rule="evenodd" clip-rule="evenodd" d="M150.44 444.01L161.162 448.808L160.617 455.091L169.619 468.476L177.802 470.387L182.166 461.92L202.352 462.194L200.987 451.266L212.716 445.803L218.99 428.594L229.901 430.506L227.173 445.257L247.084 444.866L247.041 445.086L262.539 465.292L249.381 488.426L239.731 485.205L237.975 496.04L230.08 490.476L230.665 478.177L240.608 465.585L233.97 465.036L216.448 495.137L205.421 495.591L197.415 477.742L190.92 477.439L181.404 481.221L184.879 489.844L191.071 486.969L189.712 499.071L186.842 504.516L182.274 506.137L181.197 503.9L142.348 477.268L138.541 477.084L139.11 476.533L150.44 444.01Z" fill="#FECC00" fill-opacity="0.5" stroke="#3F4543" stroke-width="2" stroke-miterlimit="22.9256"/>
<path fill-rule="evenodd" clip-rule="evenodd" d="M247.084 444.866L248.795 436.009L241.673 432.968L242.73 425.708L252.548 418.749L249.679 418.144L248.47 413L258.742 401.203L274.45 409.068L275.81 398.329L263.273 390.009L265.387 382.143L268.409 384.564L269.085 383.911L266.456 378.049L256.809 377.004L245.859 356.638L258.373 345.933L277.667 330.789L286.271 314.601L285.815 305.748L286.081 306.057L277.321 295.922L277.623 303.486L272.034 309.385L263.122 308.629L241.522 322.999L231.25 323.604L228.079 301.217L210.557 304.847L210.254 295.619L203.91 296.679L201.947 290.779L193.941 291.838L196.358 297.435L190.467 297.737L192.582 308.024L174.456 310.444L174.758 320.578L162.371 319.218L162.523 324.663L154.215 328.746L161.919 352.344L153.762 355.218L145.303 347.201L141.829 370.495L132.011 397.572L105.275 406.648L100.442 412.093L100.592 418.144L94.5508 422.228L100.743 436.598L135.334 434.33L150.44 444.01L161.162 448.808L160.617 455.091L169.618 468.476L177.802 470.387L182.166 461.92L202.351 462.194L200.987 451.266L212.716 445.803L218.99 428.594L229.901 430.506L227.173 445.257L247.084 444.866Z" fill="#009846" fill-opacity="0.5" stroke="#3F4543" stroke-width="2" stroke-miterlimit="22.9256"/>
</g>
<defs>
<clipPath id="clip0_543_3299">
<rect width="327" height="544" fill="white"/>
</clipPath>
</defs>
</svg>
