<svg width="81" height="23" viewBox="0 0 81 23" fill="none" xmlns="http://www.w3.org/2000/svg">
<g clip-path="url(#clip0_87_1639)">
<path d="M45.101 2.43159L39.9888 13.5883H39.4775V0H32.2068V23H38.3699C39.9888 23 41.4656 22.056 42.1472 20.5684L47.2594 9.41169H47.7707V23H55.0413V0H48.8783C47.231 0 45.7826 0.94403 45.101 2.43159Z" fill="#27A33B"/>
<path d="M17.8359 3.03234L14.797 13.6169H14.2858L11.2468 3.03234C10.7356 1.2301 9.11676 0 7.27069 0H0V23H7.27069V9.41169H7.78191L11.9285 23H17.1259L21.2724 9.41169H21.7837V23H29.0543V0H21.8121C19.966 0 18.3471 1.2301 17.8359 3.03234Z" fill="#27A33B"/>
<path d="M58.1371 10.4703V23.0287H65.3794V15.6767H73.1897C76.5694 15.6767 79.4663 13.5026 80.5172 10.4417L58.1371 10.4703Z" fill="#27A33B"/>
<path d="M73.2181 0H57.1146C58.0803 5.3495 62.738 9.41169 68.3331 9.41169H80.8296C80.9432 8.89677 80.9716 8.38184 80.9716 7.83831C81 3.51866 77.5066 0 73.2181 0Z" fill="#27A33B"/>
</g>
<defs>
<clipPath id="clip0_87_1639">
<rect width="81" height="23" fill="white"/>
</clipPath>
</defs>
</svg>
