<svg width="26" height="36" viewBox="0 0 26 36" fill="none" xmlns="http://www.w3.org/2000/svg">
<path d="M12.8829 0C5.73874 0 0 5.89967 0 13.2441C0 15.1706 0.351351 16.9766 1.17117 18.6622C4.33333 25.8863 10.5405 33.592 12.4144 35.7592C12.5315 35.8796 12.7658 36 13 36C13.2342 36 13.3514 35.8796 13.5856 35.7592C15.3424 33.592 21.5495 25.8863 24.8288 18.6622C25.5315 16.9766 26 15.1706 26 13.2441C25.7658 5.89967 20.027 0 12.8829 0ZM12.8829 20.107C9.25225 20.107 6.20721 16.9766 6.20721 13.2441C6.20721 9.51171 9.25225 6.38126 12.8829 6.38126C16.5135 6.38126 19.5586 9.51171 19.5586 13.2441C19.6757 17.097 16.6306 20.107 12.8829 20.107Z" fill="#27A33B"/>
</svg>
