<svg width="24" height="24" viewBox="0 0 24 24" fill="none" xmlns="http://www.w3.org/2000/svg">
<rect width="24" height="24" rx="12" fill="#64C355"/>
<g clip-path="url(#clip0_2010_3229)">
<path d="M16.25 7.81219H15.2825C15.383 7.61082 15.4535 7.39032 15.483 7.15463C15.5465 6.65513 15.433 6.15844 15.1645 5.75513C14.8955 5.35126 14.503 5.08969 14.059 5.01826C13.6165 4.94794 13.1735 5.07451 12.815 5.37657C12.467 5.67019 12.202 6.04932 12 6.43519C11.798 6.04988 11.533 5.67019 11.185 5.37713C10.8265 5.07451 10.3845 4.94851 9.941 5.01882C9.497 5.09026 9.1045 5.35182 8.836 5.75513C8.567 6.15844 8.4535 6.65569 8.517 7.15463C8.547 7.39032 8.617 7.61194 8.7165 7.81219H7.75C6.785 7.81219 6 8.69532 6 9.78094V10.0622C6 10.6826 6.4485 11.1872 7 11.1872H17C17.5515 11.1872 18 10.6826 18 10.0622V9.78094C18 8.69532 17.215 7.81219 16.25 7.81219ZM13.4145 6.27713C13.559 6.15507 13.7385 6.10276 13.9175 6.13257C14.0965 6.16126 14.2555 6.26701 14.3645 6.43013C14.4735 6.59326 14.519 6.79407 14.4935 6.99544C14.468 7.19738 14.374 7.37569 14.213 7.51182C14.1945 7.52813 14.028 7.66819 13.704 7.81163H12.55C12.661 7.38582 12.925 6.69001 13.415 6.27657L13.4145 6.27713ZM9.771 7.49832C9.6265 7.37569 9.532 7.19738 9.507 6.99544C9.4815 6.79407 9.527 6.59326 9.6365 6.42957C9.745 6.26644 9.9035 6.16069 10.083 6.13201C10.26 6.10276 10.441 6.15451 10.586 6.27713C11.076 6.69057 11.3395 7.38582 11.451 7.81219H10.297C9.973 7.66876 9.805 7.52757 9.772 7.49832H9.771ZM12.662 14.925C12.5155 14.7849 12.462 14.5571 12.5285 14.3541C12.5945 14.151 12.7665 14.016 12.9585 14.016H14.334L14.821 12.4793C14.8875 12.2773 15.059 12.1434 15.2505 12.1434C15.442 12.1434 15.6135 12.2773 15.68 12.4793L16.167 14.016H17.5425C17.735 14.016 17.907 14.1516 17.973 14.3546C18.039 14.5583 17.985 14.7866 17.8375 14.9261L16.753 15.9201L17.2015 17.4568C17.263 17.6649 17.2005 17.8939 17.046 18.0272C16.8915 18.1605 16.679 18.1701 16.516 18.0508L15.254 17.1261L14.013 18.0604C13.936 18.1183 13.847 18.1476 13.758 18.1476C13.661 18.1476 13.5645 18.1133 13.483 18.0446C13.327 17.9136 13.2625 17.6858 13.3205 17.4771L13.7515 15.9218L12.662 14.9244V14.925ZM12.5245 18.4997H9.5C8.1195 18.4997 7 17.2403 7 15.6872V12.3122H13.812L13.6285 12.891H12.9585C12.3485 12.891 11.7985 13.3241 11.59 13.9654C11.3795 14.6083 11.55 15.3384 12.031 15.798L12.5955 16.3144L12.3665 17.1413C12.2365 17.6076 12.3045 18.102 12.5245 18.4997Z" fill="white"/>
</g>
<defs>
<clipPath id="clip0_2010_3229">
<rect width="12" height="13.5" fill="white" transform="translate(6 5)"/>
</clipPath>
</defs>
</svg>
