<svg width="63" height="47" viewBox="0 0 63 47" fill="none" xmlns="http://www.w3.org/2000/svg">
<g clip-path="url(#clip0_200_2149)">
<path fill-rule="evenodd" clip-rule="evenodd" d="M6.5238 0.000350952H56.4755C60.0637 0.000350952 62.9993 2.92391 62.9993 6.49589V16.6223C59.1845 16.6223 56.0914 19.7019 56.0914 23.5002C56.0914 27.2985 59.1845 30.3781 62.9993 30.3781V40.5045C62.9993 44.0772 60.063 47.0001 56.4755 47.0001H6.5238C2.93557 47.0001 0 44.0772 0 40.5045V30.3781C3.81481 30.3781 6.90785 27.2985 6.90785 23.5002C6.90785 19.7019 3.81481 16.6223 0 16.6223V6.49589C0 2.9232 2.93557 0.000350952 6.5238 0.000350952ZM20.0502 9.42796C23.248 9.42796 25.8394 12.0089 25.8394 15.1921C25.8394 18.376 23.2473 20.9562 20.0502 20.9562C16.8532 20.9562 14.261 18.3753 14.261 15.1921C14.261 12.0089 16.8532 9.42796 20.0502 9.42796ZM42.9484 25.4689C46.1461 25.4689 48.7376 28.0498 48.7376 31.233C48.7376 34.4169 46.1454 36.9971 42.9484 36.9971C39.7513 36.9971 37.1592 34.4162 37.1592 31.233C37.1592 28.0498 39.7513 25.4689 42.9484 25.4689ZM39.8418 9.11297C41.5148 10.075 42.0933 12.2245 41.1272 13.8903L27.9549 36.6069C26.9887 38.2727 24.8298 38.8487 23.1568 37.8867C21.4838 36.9247 20.9052 34.7752 21.8714 33.1094L35.0437 10.3928C36.0099 8.72705 38.1688 8.15099 39.8418 9.11297Z" fill="#FFE600"/>
</g>
<defs>
<clipPath id="clip0_200_2149">
<rect width="63" height="47" fill="white"/>
</clipPath>
</defs>
</svg>
