<svg width="16" height="16" viewBox="0 0 16 16" fill="none" xmlns="http://www.w3.org/2000/svg">
<g clip-path="url(#clip0_2001_679)">
<path d="M15.7074 14.2968L12.6106 11.1987C14.9278 8.10222 14.296 3.71356 11.1994 1.39641C8.10293 -0.920736 3.71426 -0.288925 1.39711 2.80759C-0.920034 5.90411 -0.288223 10.2928 2.80829 12.6099C5.29567 14.4712 8.71203 14.4712 11.1994 12.6099L14.2975 15.708C14.6868 16.0973 15.3181 16.0973 15.7074 15.708C16.0967 15.3187 16.0967 14.6874 15.7074 14.2982L15.7074 14.2968ZM7.02969 12.012C4.27765 12.012 2.04671 9.78102 2.04671 7.02898C2.04671 4.27695 4.27765 2.046 7.02969 2.046C9.78172 2.046 12.0127 4.27695 12.0127 7.02898C12.0097 9.77977 9.78051 12.009 7.02969 12.012Z" fill="#3F4543"/>
</g>
<defs>
<clipPath id="clip0_2001_679">
<rect width="16" height="16" fill="white"/>
</clipPath>
</defs>
</svg>
