<svg width="30" height="30" viewBox="0 0 30 30" fill="none" xmlns="http://www.w3.org/2000/svg">
<circle cx="15" cy="15" r="15" fill="#2F80ED"/>
<path d="M17.9937 20.4004C17.8999 20.4004 17.8068 20.3726 17.727 20.3185L14.7097 18.2718L13.0914 19.4363C12.9645 19.5275 12.8009 19.5505 12.6535 19.4978C12.5063 19.445 12.3945 19.3231 12.3546 19.1719L11.5421 16.0925L8.63866 14.9823C8.45587 14.9124 8.33465 14.7375 8.33332 14.5418C8.33199 14.3461 8.45081 14.1696 8.6327 14.0972L19.6725 9.7044C19.7226 9.68311 19.7756 9.67083 19.8291 9.66753C19.8482 9.66639 19.8674 9.66639 19.8865 9.66747C19.9972 9.67406 20.1059 9.71915 20.1908 9.80237C20.1996 9.81099 20.208 9.81979 20.2159 9.82897C20.2862 9.90928 20.3248 10.0072 20.3321 10.1069C20.3339 10.132 20.3337 10.1574 20.3315 10.1828C20.33 10.2009 20.3274 10.219 20.3237 10.2369L18.4603 20.0143C18.4303 20.1714 18.3234 20.3029 18.1757 20.3641C18.1171 20.3884 18.0552 20.4004 17.9937 20.4004ZM14.9746 17.3036L17.6623 19.1266L19.1123 11.5187L13.8754 16.5579L14.962 17.295C14.9663 17.2977 14.9705 17.3006 14.9746 17.3036ZM12.7372 16.8982L13.0971 18.2617L13.8724 17.7038L12.8572 17.0151C12.81 16.9832 12.7696 16.9434 12.7372 16.8982ZM10.1153 14.5297L12.1089 15.292C12.2517 15.3465 12.3595 15.4666 12.3985 15.6144L12.6514 16.5726C12.6629 16.4621 12.713 16.3581 12.7944 16.2798L17.7844 11.4782L10.1153 14.5297Z" fill="white"/>
</svg>
