<svg width="30" height="30" viewBox="0 0 30 30" fill="none" xmlns="http://www.w3.org/2000/svg">
<circle cx="15" cy="15" r="15" fill="#AA76FF"/>
<path d="M20.2152 9.63134C19.8847 9.32863 18.5461 8.35549 15.565 8.34272C15.565 8.34272 12.0474 8.13221 10.3339 9.70466C9.38073 10.6578 9.04691 12.0536 9.00858 13.7849C8.97026 15.5162 8.92749 18.7611 12.0552 19.6432H12.058L12.0552 20.9868C12.0552 20.9868 12.0346 21.5311 12.3923 21.6405C12.8245 21.7761 13.08 21.3617 13.4938 20.9162C13.7204 20.6713 14.0326 20.3125 14.2697 20.0386C14.603 20.0714 14.9896 20.0898 15.3812 20.0898C16.396 20.0898 17.3819 19.9648 18.3239 19.7293L18.2406 19.747C18.6727 19.6065 21.1178 19.2938 21.5132 16.0495C21.9265 12.7002 21.3166 10.5873 20.2152 9.63134ZM20.5773 15.8051C20.2402 18.5129 18.2595 18.685 17.8951 18.8017C17.0997 19.0039 16.1866 19.1194 15.2462 19.1194C14.9762 19.1194 14.7085 19.11 14.4436 19.0911L14.4791 19.0933C14.4791 19.0933 13.125 20.7257 12.7034 21.1501C12.5656 21.2878 12.414 21.2767 12.4168 21.0018C12.4168 20.8224 12.4273 18.77 12.4273 18.77C9.77954 18.0357 9.93284 15.2719 9.96394 13.8283C9.99505 12.3847 10.2661 11.1982 11.0732 10.4017C12.524 9.08701 15.5106 9.28197 15.5106 9.28197C18.034 9.29252 19.242 10.0529 19.5231 10.3079C20.4529 11.1049 20.9267 13.0118 20.5773 15.8051ZM16.9608 13.7011V13.7088C16.9608 13.8022 16.8853 13.8777 16.792 13.8777C16.7014 13.8777 16.6276 13.8066 16.6237 13.7172C16.6259 13.6938 16.6276 13.6655 16.6276 13.6383C16.6276 13.1934 16.2671 12.8329 15.8222 12.8329C15.8055 12.8329 15.7889 12.8335 15.7728 12.8346H15.775C15.6855 12.8296 15.615 12.7563 15.615 12.6663C15.615 12.573 15.6905 12.4974 15.7839 12.4974H15.7933C15.8044 12.4969 15.8177 12.4969 15.8311 12.4969C16.4565 12.4969 16.9631 13.0034 16.9631 13.6289C16.9631 13.6544 16.962 13.68 16.9603 13.7049V13.7016L16.9608 13.7011ZM17.4891 13.996C17.5152 12.8918 16.8253 12.0275 15.5156 11.9309C15.4273 11.9248 15.3584 11.8514 15.3584 11.7626C15.3584 11.6693 15.4339 11.5937 15.5272 11.5937C15.5311 11.5937 15.5356 11.5937 15.5395 11.5943H15.5484C16.8075 11.5943 17.829 12.6152 17.829 13.8749C17.829 13.9199 17.8279 13.9649 17.8251 14.0093L17.8257 14.0032C17.8234 14.0949 17.749 14.1676 17.6574 14.1676C17.564 14.1676 17.4885 14.0921 17.4885 13.9988C17.4885 13.9971 17.4885 13.996 17.4885 13.9943L17.4891 13.996ZM18.711 14.3454V14.3465C18.711 14.4398 18.6355 14.5153 18.5422 14.5153C18.4489 14.5153 18.3744 14.4404 18.3739 14.3482C18.3606 12.2253 16.9447 11.0694 15.229 11.0572C15.1357 11.0572 15.0607 10.9816 15.0607 10.8889C15.0607 10.7961 15.1362 10.7206 15.229 10.7206C17.1502 10.7339 18.6944 12.0597 18.7099 14.3448L18.711 14.3454ZM18.4194 16.8993V16.9043C18.1384 17.3992 17.6124 17.9457 17.0708 17.7713L17.0658 17.7636C16.0482 17.3836 15.1684 16.8871 14.3825 16.2755L14.4053 16.2922C13.9926 15.9634 13.6299 15.6007 13.3116 15.2019L13.301 15.188C13.0183 14.8336 12.7534 14.437 12.5223 14.0182L12.5001 13.9743C12.2463 13.56 12.0169 13.0812 11.8374 12.5785L11.8208 12.5241C11.6464 11.9825 12.1902 11.4565 12.6878 11.1755H12.6928C12.765 11.1294 12.8528 11.1016 12.9472 11.1016C13.0955 11.1016 13.2277 11.1699 13.3149 11.276L13.3155 11.2771C13.3155 11.2771 13.6382 11.662 13.7765 11.8526C13.9065 12.0297 14.0814 12.3136 14.172 12.4719C14.2242 12.5535 14.2547 12.6535 14.2547 12.7607C14.2547 12.9207 14.1859 13.0645 14.0759 13.1639L14.0753 13.1645L13.7632 13.4145C13.6771 13.4978 13.6237 13.6144 13.6237 13.7433C13.6237 13.7561 13.6243 13.7683 13.6254 13.7805V13.7788C13.947 14.8358 14.763 15.6518 15.7972 15.9678L15.8205 15.9739C15.8311 15.975 15.8438 15.9756 15.8561 15.9756C15.9849 15.9756 16.1016 15.9223 16.1849 15.8367L16.4348 15.5246C16.5348 15.414 16.6787 15.3452 16.8386 15.3452C16.9458 15.3452 17.0453 15.3763 17.1297 15.4296L17.1275 15.4285C17.579 15.6857 17.9695 15.9684 18.3256 16.2889L18.3195 16.2833C18.4261 16.3688 18.4933 16.4994 18.4933 16.6455C18.4933 16.7393 18.4655 16.8265 18.4172 16.8998L18.4183 16.8982L18.4194 16.8993Z" fill="white"/>
</svg>
