<svg width="30" height="30" viewBox="0 0 30 30" fill="none" xmlns="http://www.w3.org/2000/svg">
<circle cx="15" cy="15" r="15" fill="#5FBC74"/>
<path d="M19.2268 10.7426C18.0984 9.61954 16.5973 9.00064 14.9997 9C13.4057 9 11.9023 9.61835 10.7665 10.7411C9.62866 11.8659 9.00147 13.3606 9 14.9444V14.9474C9.00018 15.906 9.25229 16.8731 9.73084 17.7558L9.0164 21L12.3011 20.2536C13.133 20.6724 14.0612 20.8932 14.9974 20.8936H14.9998C16.5935 20.8936 18.097 20.2752 19.233 19.1523C20.3718 18.0266 20.9993 16.5339 21 14.949C21.0005 13.3753 20.3708 11.8814 19.2268 10.7426ZM14.9997 19.957H14.9976C14.157 19.9567 13.3241 19.7458 12.589 19.3471L12.4337 19.2629L10.2495 19.7592L10.7239 17.6051L10.6325 17.4476C10.1778 16.6642 9.93749 15.7993 9.93749 14.9464C9.93923 12.1854 12.2099 9.93658 14.9995 9.93658C16.3472 9.93713 17.6135 10.4591 18.5651 11.4061C19.5311 12.3678 20.0629 13.6259 20.0624 14.9487C20.0613 17.7103 17.7902 19.957 14.9997 19.957Z" fill="white"/>
<path d="M13.3671 12.3249H13.1041C13.0126 12.3249 12.8639 12.3592 12.7382 12.4958C12.6124 12.6326 12.2578 12.9632 12.2578 13.6356C12.2578 14.308 12.7497 14.9576 12.8182 15.0489C12.8869 15.1401 13.7676 16.5639 15.1626 17.1117C16.3219 17.5669 16.5579 17.4763 16.8094 17.4535C17.0611 17.4308 17.6215 17.123 17.7358 16.804C17.8502 16.4849 17.8502 16.2113 17.8159 16.1542C17.7816 16.0973 17.69 16.0631 17.5528 15.9948C17.4156 15.9264 16.7429 15.5902 16.6171 15.5446C16.4913 15.4991 16.3998 15.4763 16.3083 15.6131C16.2167 15.7497 15.9472 16.0658 15.8671 16.157C15.7871 16.2482 15.707 16.2597 15.5697 16.1913C15.4325 16.1227 14.995 15.9759 14.4707 15.5104C14.0626 15.1481 13.7794 14.6862 13.6993 14.5494C13.6193 14.4127 13.6908 14.3387 13.7596 14.2705C13.8213 14.2094 13.9046 14.1257 13.9733 14.0459C14.0418 13.9661 14.0613 13.9091 14.1071 13.818C14.1529 13.7268 14.13 13.6469 14.0957 13.5786C14.0613 13.5103 13.7979 12.8345 13.6759 12.5642C13.5731 12.3366 13.4649 12.3289 13.3671 12.3249Z" fill="white"/>
</svg>
